<?xml version="1.0" encoding="UTF-8"?>
<!DOCTYPE svg PUBLIC "-//W3C//DTD SVG 1.1//EN" "http://www.w3.org/Graphics/SVG/1.1/DTD/svg11.dtd">
<svg xmlns="http://www.w3.org/2000/svg" version="1.1" width="512px" height="512px" style="shape-rendering:geometricPrecision; text-rendering:geometricPrecision; image-rendering:optimizeQuality; fill-rule:evenodd; clip-rule:evenodd" xmlns:xlink="http://www.w3.org/1999/xlink">
<g><path style="opacity:0.928" fill="#000000" d="M 397.5,41.5 C 426.031,40.8813 444.198,54.2146 452,81.5C 455.676,112.495 442.509,132.328 412.5,141C 379.834,143.927 360,129.427 353,97.5C 351.612,72.7643 362.112,55.2643 384.5,45C 388.919,43.6476 393.252,42.481 397.5,41.5 Z M 397.5,57.5 C 417.736,56.6978 430.57,66.0312 436,85.5C 437.401,105.425 428.568,118.258 409.5,124C 382.333,124.833 369.167,111.667 370,84.5C 373.783,69.8829 382.949,60.8829 397.5,57.5 Z"/></g>
<g><path style="opacity:0.929" fill="#000000" d="M 11.5,84.5 C 110.167,84.3333 208.834,84.5 307.5,85C 309.333,85.5 310.5,86.6667 311,88.5C 311.333,127.833 311.667,167.167 312,206.5C 324.67,190.016 338.17,174.182 352.5,159C 353.833,158.333 355.167,157.667 356.5,157C 397.795,155.362 439.128,155.028 480.5,156C 493.11,158.608 501.277,166.108 505,178.5C 505.667,212.5 505.667,246.5 505,280.5C 498.648,298.264 486.148,304.931 467.5,300.5C 467.667,347.835 467.5,395.168 467,442.5C 463.793,463.686 451.626,472.519 430.5,469C 420.253,464.415 414.086,456.582 412,445.5C 411.667,409.167 411.333,372.833 411,336.5C 408.019,332.304 404.186,331.471 399.5,334C 398.874,334.75 398.374,335.584 398,336.5C 397.667,373.167 397.333,409.833 397,446.5C 393.982,461.183 384.982,469.183 370,470.5C 355.224,468.952 346.224,460.952 343,446.5C 342.667,383.167 342.333,319.833 342,256.5C 335.051,263.571 328.218,270.738 321.5,278C 318.779,280.027 315.779,281.527 312.5,282.5C 311.668,290.479 311.168,298.479 311,306.5C 310.606,309.893 308.773,312.06 305.5,313C 263.167,313.333 220.833,313.667 178.5,314C 205,351.833 231.5,389.667 258,427.5C 262.103,435.295 259.769,439.962 251,441.5C 248.333,441.833 246.333,440.833 245,438.5C 220.333,403.167 195.667,367.833 171,332.5C 170.667,357.833 170.333,383.167 170,408.5C 166.229,412.788 161.729,413.621 156.5,411C 155.874,410.25 155.374,409.416 155,408.5C 154.667,383.167 154.333,357.833 154,332.5C 128.611,367.556 103.611,402.889 79,438.5C 75.5275,441.658 71.6942,442.158 67.5,440C 64.1966,436.205 63.6966,432.038 66,427.5C 92.6942,390.306 119.194,352.972 145.5,315.5C 101.17,314.667 56.8371,314.167 12.5,314C 9.66667,313.167 7.83333,311.333 7,308.5C 6.33333,235.833 6.33333,163.167 7,90.5C 7.59854,87.7458 9.09854,85.7458 11.5,84.5 Z M 23.5,100.5 C 113.833,100.5 204.167,100.5 294.5,100.5C 294.667,131.168 294.5,161.835 294,192.5C 290,186.5 286,180.5 282,174.5C 273.932,167.254 264.432,164.421 253.5,166C 246.889,155.723 239.889,145.723 232.5,136C 219.498,136.17 216.664,141.67 224,152.5C 230.027,160.36 235.86,168.36 241.5,176.5C 235.183,185.517 234.016,195.184 238,205.5C 252.667,228.833 267.333,252.167 282,275.5C 285.048,279.276 288.881,281.942 293.5,283.5C 294.493,288.12 294.827,292.786 294.5,297.5C 204.167,297.5 113.833,297.5 23.5,297.5C 23.5,231.833 23.5,166.167 23.5,100.5 Z M 361.5,171.5 C 400.835,171.333 440.168,171.5 479.5,172C 483.333,173.167 485.833,175.667 487,179.5C 487.667,212.5 487.667,245.5 487,278.5C 483.23,285.414 477.73,287.247 470.5,284C 468.19,282.363 466.69,280.196 466,277.5C 465.667,248.833 465.333,220.167 465,191.5C 461.911,186.695 457.744,185.528 452.5,188C 450.513,189.319 449.346,191.152 449,193.5C 448.667,277.5 448.333,361.5 448,445.5C 444.578,452.296 439.411,454.129 432.5,451C 430.383,449.269 428.883,447.102 428,444.5C 427.976,406.453 427.309,368.453 426,330.5C 420.454,318.975 411.287,314.142 398.5,316C 390.184,318.313 384.351,323.48 381,331.5C 379.703,369.8 379.037,408.134 379,446.5C 371.856,456.072 365.189,455.739 359,445.5C 358.994,373.418 358.327,301.418 357,229.5C 354.005,226.735 350.505,225.902 346.5,227C 334.185,239.916 321.851,252.916 309.5,266C 304.384,268.256 299.551,267.756 295,264.5C 280.667,241.833 266.333,219.167 252,196.5C 250.527,187.792 254.194,182.792 263,181.5C 264.893,182.196 266.726,183.03 268.5,184C 279.372,199.576 289.872,215.409 300,231.5C 303.256,233.429 306.756,233.929 310.5,233C 327.15,212.192 344.15,191.692 361.5,171.5 Z"/></g>
<g><path style="opacity:0.909" fill="#000000" d="M 52.5,124.5 C 87.5016,124.333 122.502,124.5 157.5,125C 161.238,126.399 162.904,129.066 162.5,133C 162.802,137.368 160.802,140.035 156.5,141C 122.167,141.667 87.8333,141.667 53.5,141C 49.1984,140.035 47.1984,137.368 47.5,133C 47.3082,129.035 48.9749,126.201 52.5,124.5 Z"/></g>
<g><path style="opacity:0.909" fill="#000000" d="M 53.5,168.5 C 100.501,168.333 147.501,168.5 194.5,169C 199.294,169.463 201.628,172.13 201.5,177C 201.6,180.804 199.934,183.471 196.5,185C 148.5,185.667 100.5,185.667 52.5,185C 48.7623,183.601 47.0956,180.934 47.5,177C 47.399,172.612 49.399,169.779 53.5,168.5 Z"/></g>
<g><path style="opacity:0.888" fill="#000000" d="M 398.5,199.5 C 401.518,199.335 404.518,199.502 407.5,200C 409.487,201.319 410.654,203.152 411,205.5C 411.667,211.833 411.667,218.167 411,224.5C 408.039,231.764 403.206,233.264 396.5,229C 395.809,227.933 395.309,226.766 395,225.5C 394.333,218.5 394.333,211.5 395,204.5C 395.997,202.677 397.164,201.01 398.5,199.5 Z"/></g>
<g><path style="opacity:0.963" fill="#000000" d="M 51.5,212.5 C 105.168,212.333 158.834,212.5 212.5,213C 218.704,217.52 219.037,222.52 213.5,228C 159.5,228.667 105.5,228.667 51.5,228C 48.484,226.471 47.1506,223.971 47.5,220.5C 47.2824,216.934 48.6157,214.268 51.5,212.5 Z"/></g>
<g><path style="opacity:0.885" fill="#000000" d="M 400.5,245.5 C 405.46,245.06 408.96,247.06 411,251.5C 411.896,259.246 411.563,266.913 410,274.5C 406.662,277.318 402.829,278.151 398.5,277C 396.951,275.786 395.785,274.286 395,272.5C 394.099,264.421 394.432,256.421 396,248.5C 397.409,247.219 398.909,246.219 400.5,245.5 Z"/></g>
<g><path style="opacity:0.906" fill="#000000" d="M 53.5,255.5 C 111.168,255.333 168.834,255.5 226.5,256C 230.666,256.985 232.666,259.652 232.5,264C 232.6,267.804 230.934,270.471 227.5,272C 169.167,272.667 110.833,272.667 52.5,272C 48.7623,270.601 47.0956,267.934 47.5,264C 47.399,259.612 49.399,256.779 53.5,255.5 Z"/></g>
</svg>
