<?xml version="1.0" encoding="UTF-8"?>
<!DOCTYPE svg PUBLIC "-//W3C//DTD SVG 1.1//EN" "http://www.w3.org/Graphics/SVG/1.1/DTD/svg11.dtd">
<svg xmlns="http://www.w3.org/2000/svg" version="1.1" width="512px" height="512px" style="shape-rendering:geometricPrecision; text-rendering:geometricPrecision; image-rendering:optimizeQuality; fill-rule:evenodd; clip-rule:evenodd" xmlns:xlink="http://www.w3.org/1999/xlink">
<g><path style="opacity:0.934" fill="#000000" d="M 511.5,436.5 C 511.5,446.833 511.5,457.167 511.5,467.5C 505.253,489.241 490.92,502.075 468.5,506C 326.5,506.667 184.5,506.667 42.5,506C 20.08,502.075 5.74662,489.241 -0.5,467.5C -0.5,457.167 -0.5,446.833 -0.5,436.5C 1.01027,435.164 2.67694,433.997 4.5,433C 9.48892,432.501 14.4889,432.334 19.5,432.5C 19.3333,341.499 19.5,250.499 20,159.5C 22.9324,142.567 32.7658,132.067 49.5,128C 57.1883,127.831 64.8549,127.331 72.5,126.5C 67.5977,111.383 71.2643,98.8827 83.5,89C 134.342,61.7453 185.342,34.7453 236.5,8C 248.062,3.84186 259.728,3.50852 271.5,7C 281.779,11.4728 291.779,16.4728 301.5,22C 305.393,26.4089 305.393,30.7422 301.5,35C 298.97,36.4217 296.303,36.755 293.5,36C 282.816,30.1555 271.816,25.1555 260.5,21C 253.56,20.0667 246.894,21.0667 240.5,24C 190.254,50.7061 140.087,77.5394 90,104.5C 84.6899,112.709 85.5232,120.209 92.5,127C 141.658,152.745 190.658,178.745 239.5,205C 250.987,209.894 262.32,209.56 273.5,204C 284.858,198.325 295.858,192.158 306.5,185.5C 287.52,163.352 268.353,141.352 249,119.5C 246.13,109.036 249.964,105.203 260.5,108C 281.373,131.204 301.873,154.704 322,178.5C 354.087,161.206 386.254,144.039 418.5,127C 426.714,118.28 426.381,109.947 417.5,102C 384.167,84.3333 350.833,66.6667 317.5,49C 313.5,44.6667 313.5,40.3333 317.5,36C 320.03,34.5783 322.697,34.245 325.5,35C 361.152,53.4912 396.485,72.4912 431.5,92C 440.567,102.089 442.9,113.589 438.5,126.5C 446.145,127.331 453.812,127.831 461.5,128C 478.234,132.067 488.068,142.567 491,159.5C 491.5,250.499 491.667,341.499 491.5,432.5C 496.511,432.334 501.511,432.501 506.5,433C 508.323,433.997 509.99,435.164 511.5,436.5 Z M 51.5,143.5 C 64.1711,143.333 76.8377,143.5 89.5,144C 100.833,150 112.167,156 123.5,162C 102.167,162.333 80.8333,162.667 59.5,163C 56.8981,163.935 55.3981,165.768 55,168.5C 54.3333,248.167 54.3333,327.833 55,407.5C 55.3981,410.232 56.8981,412.065 59.5,413C 74.8333,413.667 90.1667,413.667 105.5,413C 110.568,410.017 111.735,405.851 109,400.5C 107.829,399.107 106.329,398.273 104.5,398C 93.1716,397.5 81.8382,397.333 70.5,397.5C 70.5,324.5 70.5,251.5 70.5,178.5C 92.5,178.5 114.5,178.5 136.5,178.5C 129.291,235.42 153.625,269.586 209.5,281C 244.051,288.789 278.384,287.956 312.5,278.5C 312.663,280.857 312.497,283.19 312,285.5C 306.333,295.5 300.667,305.5 295,315.5C 291.642,335.155 299.976,345.821 320,347.5C 337.738,346.433 346.405,337.099 346,319.5C 341.386,308.273 335.72,297.606 329,287.5C 328.333,282.5 328.333,277.5 329,272.5C 353.222,262.278 367.889,244.278 373,218.5C 374.246,205.196 374.746,191.863 374.5,178.5C 396.5,178.5 418.5,178.5 440.5,178.5C 440.5,251.5 440.5,324.5 440.5,397.5C 336.833,397.333 233.166,397.5 129.5,398C 124.931,400.541 123.431,404.375 125,409.5C 126.167,410.667 127.333,411.833 128.5,413C 236.914,413.996 345.247,413.662 453.5,412C 454.893,410.829 455.727,409.329 456,407.5C 456.667,327.833 456.667,248.167 456,168.5C 455.602,165.768 454.102,163.935 451.5,163C 430.167,162.667 408.833,162.333 387.5,162C 398.833,156 410.167,150 421.5,144C 434.167,143.333 446.833,143.333 459.5,144C 468.214,146.713 473.381,152.546 475,161.5C 475.5,251.833 475.667,342.166 475.5,432.5C 328.833,432.5 182.167,432.5 35.5,432.5C 35.3333,342.166 35.5,251.833 36,161.5C 37.811,152.528 42.9776,146.528 51.5,143.5 Z M 152.5,177.5 C 180.113,191.974 207.78,206.474 235.5,221C 248.833,225.667 262.167,225.667 275.5,221C 287.746,214.627 299.913,208.127 312,201.5C 312.5,221.497 312.667,241.497 312.5,261.5C 266.234,275.824 221.234,272.657 177.5,252C 162.431,241.033 154.264,226.199 153,207.5C 152.5,197.506 152.334,187.506 152.5,177.5 Z M 356.5,177.5 C 357.828,182.119 358.494,187.119 358.5,192.5C 361.221,219.384 351.388,240.05 329,254.5C 328.167,233.825 328.334,213.159 329.5,192.5C 338.723,187.726 347.723,182.726 356.5,177.5 Z M 319.5,304.5 C 323.913,310.317 327.58,316.65 330.5,323.5C 329.183,328.979 325.683,331.646 320,331.5C 314.54,331.702 311.04,329.202 309.5,324C 312.453,317.259 315.787,310.759 319.5,304.5 Z M 14.5,448.5 C 74.1667,448.5 133.833,448.5 193.5,448.5C 197.02,464.186 206.686,473.686 222.5,477C 244.5,477.667 266.5,477.667 288.5,477C 304.314,473.686 313.98,464.186 317.5,448.5C 377.167,448.5 436.833,448.5 496.5,448.5C 497.994,465.344 491.661,478.177 477.5,487C 474.226,488.202 470.893,489.202 467.5,490C 326.167,490.667 184.833,490.667 43.5,490C 30.8005,487.637 21.9672,480.47 17,468.5C 15.3711,461.931 14.5378,455.265 14.5,448.5 Z M 210.5,448.5 C 240.507,448.167 270.507,448.5 300.5,449.5C 297.485,455.349 292.818,459.182 286.5,461C 265.833,461.667 245.167,461.667 224.5,461C 217.751,459.08 213.084,454.914 210.5,448.5 Z"/></g>
<g><path style="opacity:0.931" fill="#000000" d="M 96.5,331.5 C 132.502,331.333 168.502,331.5 204.5,332C 210.577,338.55 209.577,343.55 201.5,347C 167.5,347.667 133.5,347.667 99.5,347C 93.3702,345.586 91.2035,341.753 93,335.5C 93.6897,333.65 94.8564,332.316 96.5,331.5 Z"/></g>
<g><path style="opacity:0.931" fill="#000000" d="M 97.5,362.5 C 149.168,362.333 200.834,362.5 252.5,363C 258.042,365.602 259.542,369.769 257,375.5C 256.097,376.701 254.931,377.535 253.5,378C 201.167,378.667 148.833,378.667 96.5,378C 90.9385,372.353 91.2719,367.186 97.5,362.5 Z"/></g>
</svg>
