<svg width="51" height="51" viewBox="0 0 51 51" fill="none" xmlns="http://www.w3.org/2000/svg">
<g clip-path="url(#clip0_322_276)">
<path opacity="0.968" fill-rule="evenodd" clip-rule="evenodd" d="M7.4209 -0.0498047C15.5224 -0.0498047 23.6241 -0.0498047 31.7256 -0.0498047C32.8956 0.340237 33.6427 1.13711 33.9668 2.34082C34.0166 4.33273 34.0332 6.32492 34.0166 8.31738C37.2706 8.30079 40.5246 8.31738 43.7783 8.36719C44.8017 8.69321 45.4492 9.37387 45.7207 10.4092C45.7871 16.4854 45.7871 22.5615 45.7207 28.6377C45.4274 29.7612 44.7135 30.4418 43.5791 30.6797C40.3918 30.7295 37.2043 30.7461 34.0166 30.7295C34.0332 36.673 34.0166 42.6163 33.9668 48.5596C33.6427 49.7632 32.8956 50.5601 31.7256 50.9502C23.6241 50.9502 15.5224 50.9502 7.4209 50.9502C6.29372 50.57 5.54665 49.8063 5.17969 48.6592C5.11328 33.1866 5.11328 17.7138 5.17969 2.24121C5.54665 1.09408 6.29372 0.330411 7.4209 -0.0498047ZM8.21778 1.94238C15.9246 1.89405 23.6276 1.94386 31.3272 2.0918C31.5762 2.20801 31.7588 2.39062 31.875 2.63965C31.9248 4.53194 31.9414 6.42452 31.9248 8.31738C28.8035 8.30079 25.6825 8.31738 22.5615 8.36719C21.5515 8.64678 20.904 9.29424 20.6191 10.3096C20.5527 16.4189 20.5527 22.5284 20.6191 28.6377C20.9117 29.7603 21.6255 30.4409 22.7607 30.6797C23.3575 30.7294 23.9552 30.746 24.5537 30.7295C24.5372 31.4276 24.5537 32.1248 24.6035 32.8213C24.8784 33.3987 25.3267 33.6145 25.9482 33.4688C27.6925 32.5468 29.4522 31.6503 31.2275 30.7793C31.4576 30.7298 31.69 30.7133 31.9248 30.7295C31.9248 34.0166 31.9248 37.3037 31.9248 40.5908C23.6572 40.5908 15.3897 40.5908 7.12207 40.5908C7.12207 29.1689 7.12207 17.7471 7.12207 6.3252C12.6671 6.3418 18.212 6.3252 23.7568 6.27539C24.4757 5.97936 24.6915 5.46472 24.4043 4.73145C24.2506 4.54435 24.068 4.39494 23.8564 4.2832C18.2784 4.2334 12.7003 4.21679 7.12207 4.2334C7.09506 3.69424 7.14486 3.16299 7.27149 2.63965C7.4793 2.24666 7.79473 2.01423 8.21778 1.94238ZM22.96 10.4092C29.7667 10.3925 36.5733 10.4092 43.3799 10.459C43.4629 10.542 43.5459 10.625 43.6289 10.708C43.7277 16.6264 43.6946 22.5365 43.5293 28.4385C43.4546 28.5008 43.3715 28.5506 43.2803 28.5879C39.0635 28.6211 34.8466 28.6543 30.6299 28.6875C29.3262 29.3809 28.0146 30.0615 26.6953 30.7295C26.6621 30.2646 26.6289 29.7998 26.5957 29.335C26.4795 29.0195 26.2637 28.8037 25.9482 28.6875C24.9091 28.6827 23.8799 28.6164 22.8604 28.4883C22.8106 28.4385 22.7607 28.3887 22.7109 28.3389C22.6445 22.4619 22.6445 16.585 22.7109 10.708C22.815 10.621 22.898 10.5214 22.96 10.4092ZM30.2314 13.1982C30.3826 13.1993 30.4988 13.2657 30.5801 13.3975C31.0615 14.0781 31.543 14.7588 32.0244 15.4395C31.5444 15.7869 31.0962 16.1687 30.6797 16.585C30.5779 16.8043 30.5281 17.0367 30.5303 17.2822C31.1357 19.8695 32.5634 21.8783 34.8135 23.3086C35.1455 23.375 35.4776 23.375 35.8096 23.3086C36.2601 22.9847 36.725 22.7191 37.2041 22.5117C37.7353 23.2422 38.2666 23.9727 38.7979 24.7031C38.1376 25.4321 37.3408 25.6313 36.4072 25.3008C35.4368 24.9319 34.5403 24.4339 33.7178 23.8066C31.5034 21.8501 29.9261 19.476 28.9863 16.6846C28.7332 15.2683 29.1483 14.1062 30.2314 13.1982ZM7.12207 42.6826C15.3897 42.6826 23.6572 42.6826 31.9248 42.6826C31.9414 44.5423 31.9248 46.4016 31.875 48.2607C31.7588 48.5098 31.5762 48.6923 31.3272 48.8086C27.3963 48.9233 23.4617 48.9731 19.5234 48.958C15.7549 48.9414 11.9863 48.9248 8.21778 48.9082C7.60351 48.8252 7.25488 48.4766 7.17188 47.8623C7.12208 46.1361 7.10548 44.4095 7.12207 42.6826ZM19.2744 45.1729C19.8861 45.1047 20.2016 45.3704 20.2207 45.9697C19.84 46.5919 19.4084 46.6251 18.9258 46.0693C18.8305 45.6847 18.9467 45.3859 19.2744 45.1729Z" fill="#FFA722"/>
<path opacity="0.895" fill-rule="evenodd" clip-rule="evenodd" d="M27.2432 4.2334C28.2881 4.13266 28.7363 4.5975 28.5879 5.62793C28.0369 6.46203 27.4059 6.52844 26.6953 5.82715C26.3989 5.12612 26.5815 4.59487 27.2432 4.2334Z" fill="#FFA722"/>
<path opacity="0.943" fill-rule="evenodd" clip-rule="evenodd" d="M30.1318 11.0068C30.9877 10.9782 31.6684 11.3102 32.1738 12.0029C32.7715 12.8662 33.3691 13.7295 33.9668 14.5928C34.166 15.1573 34.166 15.7216 33.9668 16.2861C33.6323 16.802 33.2504 17.2668 32.8213 17.6807C33.3435 19.0334 34.1736 20.1622 35.3115 21.0674C36.231 20.2884 37.2271 20.139 38.2998 20.6191C39.3038 21.6888 40.1505 22.8675 40.8398 24.1553C40.9602 24.7914 40.8606 25.389 40.541 25.9482C39.0121 27.5889 37.2026 27.9708 35.1123 27.0937C33.2527 26.2545 31.6755 25.0427 30.3808 23.458C29.1506 21.9282 28.1213 20.2681 27.2929 18.4775C26.608 16.6026 26.7076 14.7763 27.5918 12.999C28.1704 11.9699 29.0171 11.3058 30.1318 11.0068ZM30.2314 13.1982C29.1483 14.1062 28.7332 15.2683 28.9863 16.6846C29.9261 19.476 31.5033 21.8501 33.7178 23.8066C34.5403 24.4339 35.4368 24.9319 36.4072 25.3008C37.3407 25.6313 38.1376 25.4321 38.7978 24.7031C38.2666 23.9727 37.7353 23.2421 37.2041 22.5117C36.725 22.7191 36.2601 22.9847 35.8095 23.3086C35.4776 23.375 35.1455 23.375 34.8135 23.3086C32.5634 21.8783 31.1357 19.8695 30.5303 17.2822C30.5281 17.0367 30.5779 16.8043 30.6797 16.585C31.0961 16.1687 31.5444 15.7869 32.0244 15.4394C31.543 14.7588 31.0615 14.0781 30.5801 13.3975C30.4988 13.2657 30.3825 13.1993 30.2314 13.1982Z" fill="#FFA722"/>
<path opacity="0.934" fill-rule="evenodd" clip-rule="evenodd" d="M12.8994 14.0947C13.67 14.0689 14.1016 14.4342 14.1943 15.1904C13.8385 15.9961 13.4567 16.7929 13.0488 17.581C12.4477 19.2518 12.4809 20.912 13.1484 22.5615C13.5264 23.2518 13.8751 23.9491 14.1943 24.6533C13.9443 25.7494 13.33 26.015 12.3516 25.4502C9.97716 21.9082 9.91078 18.3222 12.1523 14.6924C12.3649 14.4281 12.6139 14.2289 12.8994 14.0947Z" fill="#FFA722"/>
<path opacity="0.934" fill-rule="evenodd" clip-rule="evenodd" d="M16.2861 16.0869C17.3352 16.0569 17.7503 16.555 17.5312 17.581C16.4489 19.1638 16.4489 20.7576 17.5312 22.3623C17.641 23.5473 17.1264 23.9622 15.9873 23.6074C15.0776 22.5509 14.6127 21.3223 14.5928 19.9219C14.6601 18.6737 15.0419 17.5282 15.7383 16.4853C15.8877 16.2892 16.0703 16.1564 16.2861 16.0869Z" fill="#FFA722"/>
<path opacity="0.945" fill-rule="evenodd" clip-rule="evenodd" d="M18.876 43.0811C20.9108 42.9097 22.0728 43.8229 22.3623 45.8203C22.0691 47.8399 20.9069 48.7364 18.876 48.5098C17.328 47.9884 16.6472 46.9092 16.834 45.2725C17.094 44.1331 17.7746 43.4027 18.876 43.0811ZM19.2744 45.1729C18.9467 45.3859 18.8305 45.6848 18.9258 46.0693C19.4084 46.6251 19.84 46.5919 20.2207 45.9697C20.2016 45.3704 19.8861 45.1047 19.2744 45.1729Z" fill="#FFA722"/>
</g>
<defs>
<clipPath id="clip0_322_276">
<rect width="51" height="51" fill="white"/>
</clipPath>
</defs>
</svg>
