<?xml version="1.0" encoding="UTF-8"?>
<!DOCTYPE svg PUBLIC "-//W3C//DTD SVG 1.1//EN" "http://www.w3.org/Graphics/SVG/1.1/DTD/svg11.dtd">
<svg xmlns="http://www.w3.org/2000/svg" version="1.1" width="512px" height="512px" style="shape-rendering:geometricPrecision; text-rendering:geometricPrecision; image-rendering:optimizeQuality; fill-rule:evenodd; clip-rule:evenodd" xmlns:xlink="http://www.w3.org/1999/xlink">
<g><path style="opacity:0.992" fill="#000000" d="M 511.5,79.5 C 511.5,196.833 511.5,314.167 511.5,431.5C 506.014,452.485 492.681,465.652 471.5,471C 327.5,471.667 183.5,471.667 39.5,471C 18.319,465.652 4.98567,452.485 -0.5,431.5C -0.5,314.167 -0.5,196.833 -0.5,79.5C 4.98567,58.5149 18.319,45.3483 39.5,40C 98.1667,39.3333 156.833,39.3333 215.5,40C 223.5,46.3333 223.5,52.6667 215.5,59C 160.167,59.3333 104.833,59.6667 49.5,60C 31.6667,61.8333 21.8333,71.6667 20,89.5C 19.5,170.166 19.3333,250.833 19.5,331.5C 176.833,331.5 334.167,331.5 491.5,331.5C 491.667,250.833 491.5,170.166 491,89.5C 489.167,71.6667 479.333,61.8333 461.5,60C 406.167,59.6667 350.833,59.3333 295.5,59C 288.833,52.6667 288.833,46.3333 295.5,40C 354.167,39.3333 412.833,39.3333 471.5,40C 492.681,45.3483 506.014,58.5149 511.5,79.5 Z M 229.5,157.5 C 231.857,157.337 234.19,157.503 236.5,158C 254.833,168.833 273.167,179.667 291.5,190.5C 294.521,195.584 293.521,199.75 288.5,203C 271.167,213 253.833,223 236.5,233C 230.505,234.673 226.672,232.507 225,226.5C 224.333,205.833 224.333,185.167 225,164.5C 225.904,161.767 227.404,159.433 229.5,157.5 Z M 19.5,351.5 C 176.833,351.5 334.167,351.5 491.5,351.5C 491.933,377.2 491.433,402.867 490,428.5C 485.542,442.32 476.042,449.82 461.5,451C 324.167,451.667 186.833,451.667 49.5,451C 34.958,449.82 25.458,442.32 21,428.5C 19.5671,402.867 19.0671,377.2 19.5,351.5 Z M 95.5,392.5 C 105.323,391.488 109.489,395.822 108,405.5C 105.058,410.153 100.891,411.653 95.5,410C 90.8451,407.103 89.3451,402.937 91,397.5C 92.025,395.313 93.525,393.646 95.5,392.5 Z"/></g>
<g><path style="opacity:0.902" fill="#000000" d="M 250.5,39.5 C 264.121,38.1047 268.621,43.7713 264,56.5C 257.992,60.7972 252.325,60.4638 247,55.5C 244.276,49.2657 245.442,43.9324 250.5,39.5 Z"/></g>
<g><path style="opacity:0.943" fill="#000000" d="M 225.5,136.5 C 231.593,136.139 237.593,136.639 243.5,138C 262.833,149 282.167,160 301.5,171C 314.994,182.155 317.827,195.655 310,211.5C 308.38,213.241 306.88,215.075 305.5,217C 284.289,230.106 262.622,242.44 240.5,254C 226.951,256.634 216.118,252.467 208,241.5C 205.451,237.185 204.118,232.519 204,227.5C 203.073,203.801 203.407,180.134 205,156.5C 208.419,146.247 215.252,139.58 225.5,136.5 Z M 229.5,157.5 C 227.404,159.433 225.904,161.767 225,164.5C 224.333,185.167 224.333,205.833 225,226.5C 226.672,232.507 230.505,234.673 236.5,233C 253.833,223 271.167,213 288.5,203C 293.521,199.75 294.521,195.584 291.5,190.5C 273.167,179.667 254.833,168.833 236.5,158C 234.19,157.503 231.857,157.337 229.5,157.5 Z"/></g>
<g><path style="opacity:0.946" fill="#000000" d="M 91.5,371.5 C 118.645,369.811 131.145,382.478 129,409.5C 122.491,426.844 109.991,434.011 91.5,431C 71.3013,422.761 64.8013,408.261 72,387.5C 76.5182,379.67 83.0182,374.336 91.5,371.5 Z M 95.5,392.5 C 93.525,393.646 92.025,395.313 91,397.5C 89.3451,402.937 90.8451,407.103 95.5,410C 100.891,411.653 105.058,410.153 108,405.5C 109.489,395.822 105.323,391.488 95.5,392.5 Z"/></g>
<g><path style="opacity:0.994" fill="#000000" d="M 177.5,391.5 C 263.834,391.333 350.167,391.5 436.5,392C 444.5,398.333 444.5,404.667 436.5,411C 350.167,411.667 263.833,411.667 177.5,411C 172.725,407.345 171.225,402.512 173,396.5C 174.366,394.638 175.866,392.972 177.5,391.5 Z"/></g>
</svg>
