<svg id="Layer_1" data-name="Layer 1" xmlns="http://www.w3.org/2000/svg" viewBox="0 0 200 90.38"><defs><style>.cls-1{fill:#ef2e73;}.cls-2{fill:#222;}.cls-3{fill:#18254f;stroke:#18254f;stroke-miterlimit:10;}</style></defs><title>Logo</title><path class="cls-1" d="M61.73,68.37a26.41,26.41,0,0,0-1.86-9.73A26,26,0,0,0,35.41,42,26.39,26.39,0,0,0,25,44.11v.14A26.17,26.17,0,0,0,24,92a26.27,26.27,0,0,0,37.7-23.67ZM35.36,58a10.42,10.42,0,1,1,.16,20.83A10.38,10.38,0,0,1,25,68.35a10.58,10.58,0,0,1,1.23-5.09A10.46,10.46,0,0,1,35.36,58Z" transform="translate(0 -4.56)"/><path class="cls-1" d="M9,60.59c.57-9.2,6-14.34,13.71-18.6V4.56H0v14H9Z" transform="translate(0 -4.56)"/><path class="cls-1" d="M104.63,70.2a3.41,3.41,0,0,1-1.77,2.85,7.5,7.5,0,0,1-4.29,1.19H89.28V50a3.4,3.4,0,0,1,1.78-2.85A7.53,7.53,0,0,1,95.34,46h9.29V57.27a2.41,2.41,0,0,1-1.13,2,4.38,4.38,0,0,1-2.7.83,4.44,4.44,0,0,1,2.7.83,2.41,2.41,0,0,1,1.13,2ZM99,58.08V50h-4v8.08ZM99,70.2V62.12h-4V70.2Z" transform="translate(0 -4.56)"/><path class="cls-1" d="M116,74.24h-5.66V46H116Z" transform="translate(0 -4.56)"/><path class="cls-1" d="M137,74.24H131.3V50h-4V74.24h-5.65V46h9.29a7.53,7.53,0,0,1,4.28,1.19A3.4,3.4,0,0,1,137,50Z" transform="translate(0 -4.56)"/><path class="cls-1" d="M158,74.24h-5.65V65.35h-4v8.89h-5.66V50a3.4,3.4,0,0,1,1.78-2.85A7.53,7.53,0,0,1,148.68,46h3.23a7.58,7.58,0,0,1,4.29,1.19A3.41,3.41,0,0,1,158,50Zm-5.65-12.93V50h-4V61.31Z" transform="translate(0 -4.56)"/><path class="cls-1" d="M179,74.24h-5.66V62.12h-4V74.24h-5.66V50a3.4,3.4,0,0,1,1.78-2.85A7.53,7.53,0,0,1,169.69,46H179V57.27a2.43,2.43,0,0,1-1.13,2,4.43,4.43,0,0,1-2.71.83,4.49,4.49,0,0,1,2.71.83,2.43,2.43,0,0,1,1.13,2Zm-5.66-16.16V50h-4v8.08Z" transform="translate(0 -4.56)"/><path class="cls-1" d="M200,57.68l-4.85,4.85V74.24h-5.66V62.53l-4.85-4.85V46h5.66V56l2,2,2-2V46H200Z" transform="translate(0 -4.56)"/><path class="cls-2" d="M97.53,80.64a1.1,1.1,0,0,1-.21.25A.47.47,0,0,1,97,81a.74.74,0,0,1-.4-.17,5.83,5.83,0,0,0-.57-.36,3.84,3.84,0,0,0-.81-.37,3.7,3.7,0,0,0-1.13-.16,3.58,3.58,0,0,0-1.09.16,2.29,2.29,0,0,0-.78.45,1.76,1.76,0,0,0-.48.66,2,2,0,0,0-.16.82,1.48,1.48,0,0,0,.29.94,2.4,2.4,0,0,0,.76.64,6,6,0,0,0,1.08.47l1.23.41a13.06,13.06,0,0,1,1.23.48,4.4,4.4,0,0,1,1.07.7,3.1,3.1,0,0,1,.76,1,3.31,3.31,0,0,1,.29,1.48A4.58,4.58,0,0,1,98,89.89a3.93,3.93,0,0,1-.93,1.43,4.12,4.12,0,0,1-1.5,1,5.55,5.55,0,0,1-2,.35,6.42,6.42,0,0,1-1.32-.13A5.89,5.89,0,0,1,91,92.12,5.8,5.8,0,0,1,90,91.54a5,5,0,0,1-.89-.76l.6-1a.8.8,0,0,1,.21-.2.54.54,0,0,1,.28-.08.78.78,0,0,1,.48.22,8.18,8.18,0,0,0,.67.47,4.52,4.52,0,0,0,1,.48,3.6,3.6,0,0,0,1.35.22,3.77,3.77,0,0,0,1.16-.17,2.35,2.35,0,0,0,.86-.5,2.23,2.23,0,0,0,.54-.77,2.66,2.66,0,0,0,.19-1,1.71,1.71,0,0,0-.29-1,2.34,2.34,0,0,0-.76-.66,6.26,6.26,0,0,0-1.07-.45L93,85.93a10.74,10.74,0,0,1-1.23-.47,3.82,3.82,0,0,1-1.08-.69A3.22,3.22,0,0,1,90,83.7a3.93,3.93,0,0,1-.29-1.59,3.72,3.72,0,0,1,.3-1.47,3.55,3.55,0,0,1,.86-1.25,4.18,4.18,0,0,1,1.39-.88,5.06,5.06,0,0,1,1.89-.33,6.18,6.18,0,0,1,2.19.38A4.89,4.89,0,0,1,98,79.65Z" transform="translate(0 -4.56)"/><path class="cls-2" d="M114.1,85.41a8,8,0,0,1-.51,2.9,6.79,6.79,0,0,1-1.43,2.29,6.43,6.43,0,0,1-2.22,1.49,8,8,0,0,1-5.72,0A6.25,6.25,0,0,1,102,90.6a6.79,6.79,0,0,1-1.43-2.29,8,8,0,0,1-.51-2.9,8.09,8.09,0,0,1,.51-2.91A6.89,6.89,0,0,1,102,80.21a6.25,6.25,0,0,1,2.22-1.49,7.84,7.84,0,0,1,5.72,0,6.43,6.43,0,0,1,2.22,1.49,6.89,6.89,0,0,1,1.43,2.29A8.09,8.09,0,0,1,114.1,85.41Zm-2.15,0a7,7,0,0,0-.35-2.27,4.66,4.66,0,0,0-1-1.7,4,4,0,0,0-1.53-1.07,5.53,5.53,0,0,0-4,0,4.15,4.15,0,0,0-1.54,1.07,4.81,4.81,0,0,0-1,1.7,7,7,0,0,0-.35,2.27,6.87,6.87,0,0,0,.35,2.26,4.81,4.81,0,0,0,1,1.7,4.27,4.27,0,0,0,1.54,1.07,5.67,5.67,0,0,0,4,0,4.15,4.15,0,0,0,1.53-1.07,4.66,4.66,0,0,0,1-1.7A6.87,6.87,0,0,0,112,85.41Z" transform="translate(0 -4.56)"/><path class="cls-2" d="M124.82,90.71v1.76h-8.1V78.34h2.1V90.71Z" transform="translate(0 -4.56)"/><path class="cls-2" d="M132.38,90.79a3.63,3.63,0,0,0,1.51-.29,3,3,0,0,0,1.13-.8,3.4,3.4,0,0,0,.71-1.23,4.64,4.64,0,0,0,.25-1.58V78.34h2.09v8.55a6.61,6.61,0,0,1-.4,2.3,5.1,5.1,0,0,1-2.92,3,6.14,6.14,0,0,1-2.37.43,6.23,6.23,0,0,1-2.38-.43,5.1,5.1,0,0,1-2.92-3,6.61,6.61,0,0,1-.39-2.3V78.34h2.09v8.54a5,5,0,0,0,.24,1.59,3.4,3.4,0,0,0,.71,1.23,3.06,3.06,0,0,0,1.13.8A3.68,3.68,0,0,0,132.38,90.79Z" transform="translate(0 -4.56)"/><path class="cls-2" d="M151,80.09h-4.49V92.47h-2.08V80.09h-4.51V78.34H151Z" transform="translate(0 -4.56)"/><path class="cls-2" d="M155.17,92.47h-2.11V78.34h2.11Z" transform="translate(0 -4.56)"/><path class="cls-2" d="M171.82,85.41a8.21,8.21,0,0,1-.5,2.9,6.66,6.66,0,0,1-1.44,2.29,6.3,6.3,0,0,1-2.21,1.49,8,8,0,0,1-5.73,0,6.3,6.3,0,0,1-2.21-1.49,6.64,6.64,0,0,1-1.43-2.29,7.79,7.79,0,0,1-.52-2.9,7.88,7.88,0,0,1,.52-2.91,6.73,6.73,0,0,1,1.43-2.29,6.3,6.3,0,0,1,2.21-1.49,7.87,7.87,0,0,1,5.73,0,6.3,6.3,0,0,1,2.21,1.49,6.75,6.75,0,0,1,1.44,2.29A8.31,8.31,0,0,1,171.82,85.41Zm-2.14,0a7,7,0,0,0-.35-2.27,4.66,4.66,0,0,0-1-1.7,4,4,0,0,0-1.53-1.07,5.53,5.53,0,0,0-4,0,4.15,4.15,0,0,0-1.54,1.07,4.52,4.52,0,0,0-1,1.7,7,7,0,0,0-.35,2.27,6.87,6.87,0,0,0,.35,2.26,4.52,4.52,0,0,0,1,1.7,4.27,4.27,0,0,0,1.54,1.07,5.67,5.67,0,0,0,4,0,4.15,4.15,0,0,0,1.53-1.07,4.66,4.66,0,0,0,1-1.7A6.87,6.87,0,0,0,169.68,85.41Z" transform="translate(0 -4.56)"/><path class="cls-2" d="M186,78.34V92.47H185a.92.92,0,0,1-.4-.08,1.23,1.23,0,0,1-.33-.29l-8-10.33c0,.18,0,.35,0,.52s0,.34,0,.49v9.69h-1.84V78.34h1.08a1.1,1.1,0,0,1,.42.06.88.88,0,0,1,.3.29l8,10.34c0-.19,0-.38,0-.56s0-.35,0-.5V78.34Z" transform="translate(0 -4.56)"/><path class="cls-2" d="M196.84,80.64a1.1,1.1,0,0,1-.21.25.47.47,0,0,1-.28.08.74.74,0,0,1-.4-.17,5.83,5.83,0,0,0-.57-.36,3.84,3.84,0,0,0-.81-.37,3.7,3.7,0,0,0-1.13-.16,3.58,3.58,0,0,0-1.09.16,2.29,2.29,0,0,0-.78.45,1.76,1.76,0,0,0-.48.66,2,2,0,0,0-.16.82,1.48,1.48,0,0,0,.29.94,2.4,2.4,0,0,0,.76.64,6,6,0,0,0,1.08.47l1.23.41a13.06,13.06,0,0,1,1.23.48,4.4,4.4,0,0,1,1.07.7,3.1,3.1,0,0,1,.76,1,3.31,3.31,0,0,1,.29,1.48,4.58,4.58,0,0,1-.32,1.75,3.93,3.93,0,0,1-.93,1.43,4.12,4.12,0,0,1-1.5,1,5.55,5.55,0,0,1-2,.35,6.42,6.42,0,0,1-1.32-.13,5.89,5.89,0,0,1-1.21-.38,5.8,5.8,0,0,1-1.07-.58,5,5,0,0,1-.89-.76l.6-1a.8.8,0,0,1,.21-.2.54.54,0,0,1,.28-.08.78.78,0,0,1,.48.22,8.18,8.18,0,0,0,.67.47,4.68,4.68,0,0,0,.95.48,3.69,3.69,0,0,0,1.36.22,3.77,3.77,0,0,0,1.16-.17,2.35,2.35,0,0,0,.86-.5,2.23,2.23,0,0,0,.54-.77,2.66,2.66,0,0,0,.19-1,1.71,1.71,0,0,0-.29-1,2.34,2.34,0,0,0-.76-.66,6.26,6.26,0,0,0-1.07-.45l-1.23-.39a10.74,10.74,0,0,1-1.23-.47,3.82,3.82,0,0,1-1.08-.69,3.22,3.22,0,0,1-.75-1.07,3.93,3.93,0,0,1-.29-1.59,3.72,3.72,0,0,1,.3-1.47,3.55,3.55,0,0,1,.86-1.25,4.08,4.08,0,0,1,1.39-.88,5.06,5.06,0,0,1,1.89-.33,6.22,6.22,0,0,1,2.19.38,4.89,4.89,0,0,1,1.74,1.09Z" transform="translate(0 -4.56)"/><line class="cls-3" x1="75.4" y1="24.74" x2="75.4" y2="90.38"/></svg>