<svg width="754" height="503" viewBox="0 0 754 503" fill="none" xmlns="http://www.w3.org/2000/svg">
<rect x="0.5" y="22.5" width="753" height="455" fill="#674CEF" stroke="#D9D9D9"/>
<path d="M80.8206 422.095H82.202C102.695 422.095 119.309 405.482 119.309 384.988V384.297C119.309 363.422 102.386 346.5 81.5113 346.5C60.6364 346.5 43.7139 363.422 43.7139 384.297V384.988C43.7139 405.482 60.3271 422.095 80.8206 422.095Z" stroke="white" stroke-opacity="0.1"/>
<path d="M60.3999 455.5H61.7357C81.5627 455.5 97.6356 439.427 97.6356 419.6V418.933C97.6356 398.737 81.2637 382.365 61.0678 382.365C40.872 382.365 24.5 398.737 24.5 418.933V419.6C24.5 439.427 40.5729 455.5 60.3999 455.5Z" stroke="white" stroke-opacity="0.1"/>
<path d="M96.3999 455.5H97.7357C117.563 455.5 133.636 439.427 133.636 419.6V418.933C133.636 398.737 117.264 382.365 97.0678 382.365C76.872 382.365 60.5 398.737 60.5 418.933V419.6C60.5 439.427 76.5729 455.5 96.3999 455.5Z" stroke="white" stroke-opacity="0.1"/>
<path d="M607 428C607 425.239 609.239 423 612 423H682C684.761 423 687 425.239 687 428V463.741V498C687 500.761 684.761 503 682 503H612C609.239 503 607 500.761 607 498V463.741V428Z" fill="white" fill-opacity="0.1"/>
<path d="M378 5C378 2.23858 380.239 0 383 0H453C455.761 0 458 2.23858 458 5V40.7407V75C458 77.7614 455.761 80 453 80H383C380.239 80 378 77.7614 378 75V40.7407V5Z" fill="white" fill-opacity="0.1"/>
</svg>
