<svg width="22" height="23" viewBox="0 0 22 23" fill="none" xmlns="http://www.w3.org/2000/svg">
<path d="M4.06115 6.47154C5.29712 5.13161 7.16739 4.45239 9.61908 4.45239H10.5V6.9358L9.79174 7.07763C8.58484 7.31901 7.74529 7.79385 7.29601 8.49068C7.06158 8.86608 6.92862 9.29591 6.91015 9.73811H9.61908C9.85272 9.73811 10.0768 9.83092 10.242 9.99613C10.4072 10.1613 10.5 10.3854 10.5 10.6191V16.7857C10.5 17.7574 9.70982 18.5476 8.73813 18.5476H3.45241C3.21877 18.5476 2.99469 18.4548 2.82948 18.2896C2.66427 18.1244 2.57146 17.9003 2.57146 17.6667V13.2619L2.5741 10.6904C2.56617 10.5926 2.39879 8.27573 4.06115 6.47154ZM18.4286 18.5476H13.1429C12.9092 18.5476 12.6852 18.4548 12.52 18.2896C12.3547 18.1244 12.2619 17.9003 12.2619 17.6667V13.2619L12.2646 10.6904C12.2566 10.5926 12.0893 8.27573 13.7516 6.47154C14.9876 5.13161 16.8579 4.45239 19.3096 4.45239H20.1905V6.9358L19.4822 7.07763C18.2753 7.31901 17.4358 7.79385 16.9865 8.49068C16.7521 8.86608 16.6191 9.29591 16.6006 9.73811H19.3096C19.5432 9.73811 19.7673 9.83092 19.9325 9.99613C20.0977 10.1613 20.1905 10.3854 20.1905 10.6191V16.7857C20.1905 17.7574 19.4003 18.5476 18.4286 18.5476Z" fill="#FFA722"/>
</svg>
