<?xml version="1.0" encoding="UTF-8"?>
<!DOCTYPE svg PUBLIC "-//W3C//DTD SVG 1.1//EN" "http://www.w3.org/Graphics/SVG/1.1/DTD/svg11.dtd">
<svg xmlns="http://www.w3.org/2000/svg" version="1.1" width="512px" height="512px" style="shape-rendering:geometricPrecision; text-rendering:geometricPrecision; image-rendering:optimizeQuality; fill-rule:evenodd; clip-rule:evenodd" xmlns:xlink="http://www.w3.org/1999/xlink">
<g><path style="opacity:0.923" fill="#bababa" d="M 261.5,17.5 C 280.029,15.1789 296.363,20.0122 310.5,32C 317.348,39.0147 324.348,45.848 331.5,52.5C 353.43,45.4461 375.096,46.2794 396.5,55C 413.013,62.336 427.513,72.5026 440,85.5C 442.18,89.4145 441.846,93.0811 439,96.5C 424.833,110.667 410.667,124.833 396.5,139C 408.838,160.644 406.172,180.311 388.5,198C 378.116,205.812 366.449,208.812 353.5,207C 346.823,205.549 340.49,203.549 334.5,201C 320.5,215 306.5,229 292.5,243C 289.634,244.457 286.634,244.79 283.5,244C 253.678,217.879 241.178,185.045 246,145.5C 246.785,141.523 247.951,137.689 249.5,134C 248,132.5 246.5,131 245,129.5C 208.224,165.942 171.891,202.608 136,239.5C 135.333,242.5 135.333,245.5 136,248.5C 176.833,289.333 217.667,330.167 258.5,371C 277.364,370.176 291.197,378.01 300,394.5C 303.27,405.476 306.437,416.476 309.5,427.5C 331.492,428.333 353.492,428.833 375.5,429C 387.196,432.031 394.03,439.531 396,451.5C 396.667,463.833 396.667,476.167 396,488.5C 395.215,490.286 394.049,491.786 392.5,493C 306.5,493.667 220.5,493.667 134.5,493C 132.951,491.786 131.785,490.286 131,488.5C 130.333,475.833 130.333,463.167 131,450.5C 133.424,439.077 140.257,431.91 151.5,429C 173.508,428.833 195.508,428.333 217.5,427.5C 220.345,417.121 223.345,406.788 226.5,396.5C 187.014,356.514 147.347,316.68 107.5,277C 78.4723,275.974 66.3057,261.14 71,232.5C 78.0134,216.849 90.1801,209.349 107.5,210C 144.333,173.167 181.167,136.333 218,99.5C 215.73,91.3947 214.23,83.0613 213.5,74.5C 215.862,43.819 231.862,24.819 261.5,17.5 Z M 263.5,32.5 C 274.618,31.0304 284.952,33.197 294.5,39C 302.651,45.9836 310.317,53.4836 317.5,61.5C 297.847,81.6528 278.014,101.653 258,121.5C 250.302,114.136 242.969,106.47 236,98.5C 223.713,75.1586 227.88,55.3253 248.5,39C 253.367,36.2259 258.367,34.0593 263.5,32.5 Z M 353.5,62.5 C 380.533,62.1922 403.533,71.5256 422.5,90.5C 377.514,135.986 332.347,181.32 287,226.5C 270.042,208.747 260.876,187.58 259.5,163C 259.242,153.711 261.075,144.878 265,136.5C 287.833,113.667 310.667,90.8333 333.5,68C 340.066,65.329 346.733,63.4957 353.5,62.5 Z M 226.5,112.5 C 229.563,114.051 232.229,116.218 234.5,119C 199.833,153.667 165.167,188.333 130.5,223C 127.394,221.935 124.727,219.935 122.5,217C 157.368,182.299 192.035,147.465 226.5,112.5 Z M 384.5,150.5 C 385.75,150.577 386.583,151.244 387,152.5C 392.201,171.932 385.368,185.098 366.5,192C 359.491,193.195 352.825,192.195 346.5,189C 359.369,176.298 372.035,163.465 384.5,150.5 Z M 100.5,225.5 C 117.696,227.845 123.529,237.178 118,253.5C 110.966,261.91 102.466,263.744 92.5,259C 81.841,248.958 81.841,238.958 92.5,229C 95.1579,227.522 97.8245,226.355 100.5,225.5 Z M 128.5,263.5 C 166.632,301.132 204.632,338.965 242.5,377C 239.72,378.812 237.22,380.979 235,383.5C 197.5,346 160,308.5 122.5,271C 125.118,268.894 127.118,266.394 128.5,263.5 Z M 258.5,386.5 C 270.767,385.304 279.933,389.97 286,400.5C 288.816,409.765 291.316,419.099 293.5,428.5C 273.5,428.5 253.5,428.5 233.5,428.5C 235.684,419.099 238.184,409.765 241,400.5C 245.237,393.755 251.071,389.088 258.5,386.5 Z M 153.5,443.5 C 226.501,443.333 299.501,443.5 372.5,444C 377.071,445.573 379.904,448.74 381,453.5C 381.5,461.827 381.666,470.16 381.5,478.5C 302.833,478.5 224.167,478.5 145.5,478.5C 145.334,469.827 145.5,461.16 146,452.5C 147.642,448.7 150.142,445.7 153.5,443.5 Z"/></g>
</svg>
