<?xml version="1.0" encoding="UTF-8"?>
<!DOCTYPE svg PUBLIC "-//W3C//DTD SVG 1.1//EN" "http://www.w3.org/Graphics/SVG/1.1/DTD/svg11.dtd">
<svg xmlns="http://www.w3.org/2000/svg" version="1.1" width="512px" height="512px" style="shape-rendering:geometricPrecision; text-rendering:geometricPrecision; image-rendering:optimizeQuality; fill-rule:evenodd; clip-rule:evenodd" xmlns:xlink="http://www.w3.org/1999/xlink">
<g><path style="opacity:0.99" fill="#000000" d="M 67.5,63.5 C 107.168,63.3333 146.835,63.5 186.5,64C 210.81,66.6164 233.643,73.7831 255,85.5C 276.434,73.9112 299.267,66.7446 323.5,64C 363.5,63.3333 403.5,63.3333 443.5,64C 445.333,64.5 446.5,65.6667 447,67.5C 447.5,76.8274 447.666,86.1607 447.5,95.5C 459.505,95.3335 471.505,95.5001 483.5,96C 485.333,96.5 486.5,97.6667 487,99.5C 487.996,209.581 487.662,319.581 486,429.5C 485.25,430.126 484.416,430.626 483.5,431C 331.5,431.667 179.5,431.667 27.5,431C 26.5838,430.626 25.7504,430.126 25,429.5C 23.3376,319.581 23.0043,209.581 24,99.5C 24.5,97.6667 25.6667,96.5 27.5,96C 39.4954,95.5001 51.4954,95.3335 63.5,95.5C 63.3335,86.1607 63.5002,76.8274 64,67.5C 64.6897,65.6498 65.8564,64.3164 67.5,63.5 Z M 79.5,79.5 C 90.1667,79.5 100.833,79.5 111.5,79.5C 111.333,136.834 111.5,194.168 112,251.5C 113.529,254.516 116.029,255.849 119.5,255.5C 121.634,255.485 123.634,254.985 125.5,254C 131.369,249.903 137.369,246.069 143.5,242.5C 150.297,246.401 156.963,250.568 163.5,255C 166.167,255.667 168.833,255.667 171.5,255C 173.333,254.5 174.5,253.333 175,251.5C 175.5,194.501 175.667,137.501 175.5,80.5C 200.763,81.4764 224.43,88.143 246.5,100.5C 247.833,192.833 247.833,285.167 246.5,377.5C 227.908,368.101 208.241,362.268 187.5,360C 151.502,359.5 115.502,359.333 79.5,359.5C 79.5,266.167 79.5,172.833 79.5,79.5 Z M 127.5,79.5 C 138.167,79.5 148.833,79.5 159.5,79.5C 159.667,130.168 159.5,180.834 159,231.5C 154.437,227.432 149.27,224.432 143.5,222.5C 137.73,224.432 132.563,227.432 128,231.5C 127.5,180.834 127.333,130.168 127.5,79.5 Z M 340.5,79.5 C 370.833,79.5 401.167,79.5 431.5,79.5C 431.5,172.833 431.5,266.167 431.5,359.5C 396.165,359.333 360.832,359.5 325.5,360C 304.039,361.948 283.705,367.782 264.5,377.5C 263.167,285.167 263.167,192.833 264.5,100.5C 288.33,87.5458 313.664,80.5458 340.5,79.5 Z M 39.5,111.5 C 47.5,111.5 55.5,111.5 63.5,111.5C 63.0053,198.915 63.5053,286.249 65,373.5C 65.7504,374.126 66.5838,374.626 67.5,375C 107.514,375.11 147.514,375.777 187.5,377C 210.339,379.946 231.672,387.28 251.5,399C 254.167,399.667 256.833,399.667 259.5,399C 279.661,387.21 301.327,379.877 324.5,377C 364.152,375.77 403.818,375.104 443.5,375C 444.416,374.626 445.25,374.126 446,373.5C 447.495,286.249 447.995,198.915 447.5,111.5C 455.5,111.5 463.5,111.5 471.5,111.5C 471.5,212.833 471.5,314.167 471.5,415.5C 327.5,415.5 183.5,415.5 39.5,415.5C 39.5,314.167 39.5,212.833 39.5,111.5 Z"/></g>
<g><path style="opacity:1" fill="#000000" d="M 303.5,175.5 C 335.5,175.5 367.5,175.5 399.5,175.5C 399.5,180.833 399.5,186.167 399.5,191.5C 367.5,191.5 335.5,191.5 303.5,191.5C 303.5,186.167 303.5,180.833 303.5,175.5 Z"/></g>
<g><path style="opacity:0.985" fill="#000000" d="M 303.5,207.5 C 325.5,207.5 347.5,207.5 369.5,207.5C 369.5,212.833 369.5,218.167 369.5,223.5C 347.5,223.5 325.5,223.5 303.5,223.5C 303.5,218.167 303.5,212.833 303.5,207.5 Z"/></g>
<g><path style="opacity:1" fill="#000000" d="M 303.5,239.5 C 335.5,239.5 367.5,239.5 399.5,239.5C 399.5,244.833 399.5,250.167 399.5,255.5C 367.5,255.5 335.5,255.5 303.5,255.5C 303.5,250.167 303.5,244.833 303.5,239.5 Z"/></g>
<g><path style="opacity:0.985" fill="#000000" d="M 303.5,271.5 C 325.5,271.5 347.5,271.5 369.5,271.5C 369.5,276.833 369.5,282.167 369.5,287.5C 347.5,287.5 325.5,287.5 303.5,287.5C 303.5,282.167 303.5,276.833 303.5,271.5 Z"/></g>
<g><path style="opacity:1" fill="#000000" d="M 303.5,303.5 C 335.5,303.5 367.5,303.5 399.5,303.5C 399.5,308.833 399.5,314.167 399.5,319.5C 367.5,319.5 335.5,319.5 303.5,319.5C 303.5,314.167 303.5,308.833 303.5,303.5 Z"/></g>
</svg>
