<?xml version="1.0" encoding="UTF-8"?>
<!DOCTYPE svg PUBLIC "-//W3C//DTD SVG 1.1//EN" "http://www.w3.org/Graphics/SVG/1.1/DTD/svg11.dtd">
<svg xmlns="http://www.w3.org/2000/svg" version="1.1" width="512px" height="512px" style="shape-rendering:geometricPrecision; text-rendering:geometricPrecision; image-rendering:optimizeQuality; fill-rule:evenodd; clip-rule:evenodd" xmlns:xlink="http://www.w3.org/1999/xlink">
<g><path style="opacity:0.934" fill="#000000" d="M 251.5,-0.5 C 254.167,-0.5 256.833,-0.5 259.5,-0.5C 262.038,1.53975 263.871,4.20641 265,7.5C 272.135,23.7476 278.968,40.0809 285.5,56.5C 305.871,58.3367 326.205,60.5034 346.5,63C 350.969,66.9158 351.636,71.4158 348.5,76.5C 334.184,88.9813 320.018,101.648 306,114.5C 309.013,132.565 312.68,150.565 317,168.5C 318.947,175.389 316.447,179.722 309.5,181.5C 307.885,180.846 306.218,180.346 304.5,180C 288.457,169.979 272.124,160.479 255.5,151.5C 238.876,160.479 222.543,169.979 206.5,180C 201.499,182.114 197.332,180.947 194,176.5C 193.333,173.833 193.333,171.167 194,168.5C 198.32,150.565 201.987,132.565 205,114.5C 190.964,101.462 176.63,88.7949 162,76.5C 158.115,68.2237 160.615,63.3904 169.5,62C 186.833,60.3333 204.167,58.6667 221.5,57C 222.938,56.7811 224.271,56.2811 225.5,55.5C 232.236,39.459 239.069,23.459 246,7.5C 247.129,4.20641 248.962,1.53975 251.5,-0.5 Z M 254.5,30.5 C 255.376,30.3691 256.043,30.7025 256.5,31.5C 261.609,42.7175 266.442,54.0509 271,65.5C 271.883,68.1024 273.383,70.2691 275.5,72C 290.451,74.0955 305.451,75.9288 320.5,77.5C 309.542,87.2879 298.709,97.2879 288,107.5C 289.284,123.254 292.117,138.754 296.5,154C 286.357,148.919 276.357,143.252 266.5,137C 263.04,134.935 259.374,133.435 255.5,132.5C 242.608,138.28 230.275,145.114 218.5,153C 217.241,153.982 215.908,154.315 214.5,154C 218.883,138.754 221.716,123.254 223,107.5C 212.291,97.2879 201.458,87.2879 190.5,77.5C 205.549,75.9288 220.549,74.0955 235.5,72C 237.617,70.2691 239.117,68.1024 240,65.5C 244.846,53.812 249.679,42.1453 254.5,30.5 Z"/></g>
<g><path style="opacity:0.935" fill="#000000" d="M 86.5,63.5 C 89.5184,63.3354 92.5184,63.502 95.5,64C 96.3333,64.8333 97.1667,65.6667 98,66.5C 103.775,79.05 109.275,91.7166 114.5,104.5C 128.115,106.389 141.781,107.889 155.5,109C 162.16,111.49 163.993,115.99 161,122.5C 150.174,131.827 139.674,141.493 129.5,151.5C 132.813,164.753 135.813,178.087 138.5,191.5C 137.09,199.133 132.757,201.633 125.5,199C 113.917,192.293 102.417,185.459 91,178.5C 78.2761,186.361 65.2761,193.694 52,200.5C 45.3273,199.152 42.6606,195.152 44,188.5C 46.6439,176.113 49.4772,163.779 52.5,151.5C 41.9465,141.959 31.4465,132.292 21,122.5C 17.7037,115.83 19.537,111.33 26.5,109C 40.2191,107.895 53.8858,106.395 67.5,104.5C 73.0598,90.3858 79.3931,76.7191 86.5,63.5 Z M 90.5,93.5 C 94.5349,102.413 98.8683,111.246 103.5,120C 113.349,122.17 123.349,123.503 133.5,124C 125.978,130.524 118.811,137.357 112,144.5C 112.674,154.202 114.507,163.702 117.5,173C 117.167,173.167 116.833,173.333 116.5,173.5C 108.386,168.194 99.8865,163.861 91,160.5C 83.1131,163.361 75.6131,167.194 68.5,172C 67.2411,172.982 65.9078,173.315 64.5,173C 67.4931,163.702 69.3264,154.202 70,144.5C 63.189,137.357 56.0224,130.524 48.5,124C 58.6511,123.503 68.6511,122.17 78.5,120C 83.3662,111.572 87.3662,102.739 90.5,93.5 Z"/></g>
<g><path style="opacity:0.934" fill="#000000" d="M 415.5,63.5 C 418.518,63.3354 421.518,63.502 424.5,64C 425.333,64.8333 426.167,65.6667 427,66.5C 433.07,79.3013 438.57,92.3013 443.5,105.5C 457.184,106.396 470.851,107.562 484.5,109C 491.463,111.33 493.296,115.83 490,122.5C 479.554,132.292 469.054,141.959 458.5,151.5C 461.523,163.779 464.356,176.113 467,188.5C 467.648,197.858 463.481,201.358 454.5,199C 442.917,192.293 431.417,185.459 420,178.5C 407.276,186.361 394.276,193.694 381,200.5C 375.925,199.592 373.091,196.592 372.5,191.5C 375.187,178.087 378.187,164.753 381.5,151.5C 371.326,141.493 360.826,131.827 350,122.5C 347.007,115.99 348.84,111.49 355.5,109C 369.219,107.895 382.886,106.395 396.5,104.5C 402.06,90.3858 408.393,76.7191 415.5,63.5 Z M 419.5,93.5 C 423.535,102.413 427.868,111.246 432.5,120C 442.349,122.17 452.349,123.503 462.5,124C 454.978,130.524 447.811,137.357 441,144.5C 441.674,154.202 443.507,163.702 446.5,173C 439.027,169.59 431.693,165.59 424.5,161C 421.5,160.333 418.5,160.333 415.5,161C 409.5,164.667 403.5,168.333 397.5,172C 396.241,172.982 394.908,173.315 393.5,173C 396.493,163.702 398.326,154.202 399,144.5C 392.189,137.357 385.022,130.524 377.5,124C 387.651,123.503 397.651,122.17 407.5,120C 412.366,111.572 416.366,102.739 419.5,93.5 Z"/></g>
<g><path style="opacity:0.942" fill="#000000" d="M 361.5,511.5 C 312.5,511.5 263.5,511.5 214.5,511.5C 210.434,509.631 206.434,507.464 202.5,505C 188.886,491.527 172.553,483.36 153.5,480.5C 152.55,489.619 147.55,495.119 138.5,497C 108.833,497.667 79.1667,497.667 49.5,497C 44.2114,495.776 40.0447,492.942 37,488.5C 35.8443,457.726 35.3443,426.893 35.5,396C 35.6667,366.167 35.8333,336.333 36,306.5C 38.1667,301.667 41.6667,298.167 46.5,296C 78.1667,295.333 109.833,295.333 141.5,296C 148.846,298.491 153.013,303.657 154,311.5C 169.454,295.363 186.621,281.529 205.5,270C 216.475,258.891 223.975,245.724 228,230.5C 229.466,216.852 230.799,203.185 232,189.5C 241.243,172.638 255.077,167.138 273.5,173C 282.991,176.803 289.157,183.636 292,193.5C 302.39,226.688 301.89,259.688 290.5,292.5C 324.835,292.333 359.168,292.5 393.5,293C 418.168,299.152 427.334,314.652 421,339.5C 417.363,348.303 411.197,354.637 402.5,358.5C 412.148,378.24 408.148,394.573 390.5,407.5C 401.403,427.282 397.736,443.782 379.5,457C 389.574,473.043 388.574,488.376 376.5,503C 372.022,506.902 367.022,509.735 361.5,511.5 Z M 257.5,187.5 C 264.304,186.822 269.804,189.155 274,194.5C 287.1,231.097 284.934,266.764 267.5,301.5C 268.052,304.779 269.719,307.279 272.5,309C 312.167,309.333 351.833,309.667 391.5,310C 402.047,312.264 406.88,318.764 406,329.5C 404.167,336.667 399.667,341.167 392.5,343C 381.167,343.333 369.833,343.667 358.5,344C 353.931,346.541 352.431,350.375 354,355.5C 355.109,357.815 356.943,359.315 359.5,360C 366.911,360.108 374.245,360.775 381.5,362C 389.976,367.428 392.476,374.928 389,384.5C 382.256,394.637 373.089,397.804 361.5,394C 354.84,396.49 353.007,400.99 356,407.5C 356.833,408.333 357.667,409.167 358.5,410C 374.484,410.957 380.984,419.124 378,434.5C 371.008,444.5 361.508,448 349.5,445C 344.931,447.541 343.431,451.375 345,456.5C 345.465,457.931 346.299,459.097 347.5,460C 353.655,460.64 359.322,462.64 364.5,466C 371.669,475.303 371.003,483.97 362.5,492C 359.431,493.846 356.098,494.846 352.5,495C 309.167,495.667 265.833,495.667 222.5,495C 220.048,494.71 217.715,494.044 215.5,493C 198.22,476.194 177.553,466.027 153.5,462.5C 153.333,420.165 153.5,377.832 154,335.5C 165.5,324.667 177,313.833 188.5,303C 196.286,296.551 204.619,290.884 213.5,286C 231.506,270.159 242.34,250.326 246,226.5C 246.515,215.76 247.515,205.094 249,194.5C 249.465,193.069 250.299,191.903 251.5,191C 253.727,190.059 255.727,188.892 257.5,187.5 Z M 52.5,312.5 C 80.5,312.5 108.5,312.5 136.5,312.5C 136.5,368.5 136.5,424.5 136.5,480.5C 108.5,480.5 80.5,480.5 52.5,480.5C 52.5,424.5 52.5,368.5 52.5,312.5 Z"/></g>
<g><path style="opacity:0.861" fill="#000000" d="M 98.5,329.5 C 109.057,329.605 112.39,334.605 108.5,344.5C 102.912,348.813 98.0783,348.146 94,342.5C 92.3794,336.923 93.8794,332.589 98.5,329.5 Z"/></g>
</svg>
