<?xml version="1.0" encoding="UTF-8"?>
<!DOCTYPE svg PUBLIC "-//W3C//DTD SVG 1.1//EN" "http://www.w3.org/Graphics/SVG/1.1/DTD/svg11.dtd">
<svg xmlns="http://www.w3.org/2000/svg" version="1.1" width="512px" height="512px" style="shape-rendering:geometricPrecision; text-rendering:geometricPrecision; image-rendering:optimizeQuality; fill-rule:evenodd; clip-rule:evenodd" xmlns:xlink="http://www.w3.org/1999/xlink">
<g><path style="opacity:0.94" fill="#000000" d="M 251.5,-0.5 C 254.167,-0.5 256.833,-0.5 259.5,-0.5C 330.61,39.5592 401.943,79.3925 473.5,119C 479.169,121.815 481.002,126.315 479,132.5C 478.167,133.333 477.333,134.167 476.5,135C 433.591,155.038 390.758,175.205 348,195.5C 345.516,201.804 342.016,207.47 337.5,212.5C 360.628,219.753 368.795,235.086 362,258.5C 356.046,270.738 346.213,277.404 332.5,278.5C 326.53,292.967 317.363,304.967 305,314.5C 304.333,319.5 304.333,324.5 305,329.5C 308.256,327.571 311.756,327.071 315.5,328C 323.803,335.302 331.803,342.969 339.5,351C 388.941,358.795 422.774,385.962 441,432.5C 443.63,441.021 445.63,449.687 447,458.5C 447.667,474.833 447.667,491.167 447,507.5C 446.31,509.35 445.144,510.684 443.5,511.5C 318.167,511.5 192.833,511.5 67.5,511.5C 65.8564,510.684 64.6897,509.35 64,507.5C 58.4995,471.154 64.8328,437.154 83,405.5C 104.314,374.213 133.814,356.046 171.5,351C 179.197,342.969 187.197,335.302 195.5,328C 199.244,327.071 202.744,327.571 206,329.5C 206.667,324.5 206.667,319.5 206,314.5C 193.637,304.967 184.47,292.967 178.5,278.5C 155.46,274.967 144.96,261.633 147,238.5C 150.341,224.326 159.174,215.66 173.5,212.5C 168.984,207.47 165.484,201.804 163,195.5C 143.909,186.372 124.742,177.372 105.5,168.5C 104.506,173.456 104.173,178.456 104.5,183.5C 108.967,183.133 113.3,183.633 117.5,185C 118.863,186.945 119.697,189.112 120,191.5C 120.667,215.5 120.667,239.5 120,263.5C 119.883,266.911 118.383,269.411 115.5,271C 102.167,271.667 88.8333,271.667 75.5,271C 72.617,269.411 71.117,266.911 71,263.5C 70.3333,239.5 70.3333,215.5 71,191.5C 71.3034,189.112 72.1367,186.945 73.5,185C 77.6996,183.633 82.0329,183.133 86.5,183.5C 86.6664,175.493 86.4997,167.493 86,159.5C 68.7881,151.478 51.6214,143.311 34.5,135C 31.5715,131.743 30.7382,127.909 32,123.5C 33.5578,121.641 35.3911,120.141 37.5,119C 109.057,79.3925 180.39,39.5592 251.5,-0.5 Z M 254.5,17.5 C 320.187,53.4285 385.687,89.7618 451,126.5C 451.456,127.744 450.956,128.577 449.5,129C 417.257,144.132 384.923,158.965 352.5,173.5C 352.667,153.497 352.5,133.497 352,113.5C 349.458,103.961 343.292,98.1277 333.5,96C 308.026,88.7064 282.026,85.5397 255.5,86.5C 228.974,85.5397 202.974,88.7064 177.5,96C 171.447,97.7739 166.28,100.941 162,105.5C 160.25,108.246 159.25,111.246 159,114.5C 158.5,134.164 158.333,153.831 158.5,173.5C 140.747,165.792 123.08,157.792 105.5,149.5C 104.334,133.51 104.167,117.51 105,101.5C 155,73.6362 204.834,45.6362 254.5,17.5 Z M 229.5,103.5 C 250.526,103.142 271.526,103.642 292.5,105C 305.187,106.059 317.52,108.725 329.5,113C 331.587,113.792 333.421,114.959 335,116.5C 335.832,125.518 335.665,134.518 334.5,143.5C 324.499,139.666 314.166,137.166 303.5,136C 271.5,131.333 239.5,131.333 207.5,136C 196.894,137.401 186.561,139.901 176.5,143.5C 175.335,134.518 175.168,125.518 176,116.5C 182.927,112.3 190.427,109.467 198.5,108C 208.944,106.239 219.277,104.739 229.5,103.5 Z M 85.5,111.5 C 86.658,120.991 86.8246,130.658 86,140.5C 77.0897,136.295 68.2564,131.961 59.5,127.5C 68.1946,122.156 76.8613,116.822 85.5,111.5 Z M 246.5,149.5 C 262.199,149.721 277.865,150.554 293.5,152C 307.834,153.032 321.5,156.532 334.5,162.5C 337.19,175.734 334.524,187.734 326.5,198.5C 317.833,198.833 309.167,199.167 300.5,199.5C 290.444,199.615 280.444,199.115 270.5,198C 255.048,191.635 245.881,180.135 243,163.5C 238.609,158.731 233.943,158.397 229,162.5C 228.211,175.225 223.044,185.725 213.5,194C 204.523,199.395 194.857,200.895 184.5,198.5C 176.001,187.368 173.668,175.201 177.5,162C 185.678,157.788 194.345,155.121 203.5,154C 217.917,151.826 232.25,150.326 246.5,149.5 Z M 236.5,193.5 C 244.39,204.118 254.723,211.284 267.5,215C 285.111,216.445 302.777,216.945 320.5,216.5C 320.667,230.504 320.5,244.504 320,258.5C 314.575,286.591 298.075,304.425 270.5,312C 236.803,317.567 211.97,305.4 196,275.5C 193.558,270.067 191.892,264.4 191,258.5C 190.5,244.504 190.333,230.504 190.5,216.5C 207.526,217.901 221.692,212.235 233,199.5C 234.421,197.595 235.588,195.595 236.5,193.5 Z M 87.5,199.5 C 92.8333,199.5 98.1667,199.5 103.5,199.5C 103.5,218.167 103.5,236.833 103.5,255.5C 98.1667,255.5 92.8333,255.5 87.5,255.5C 87.5,236.833 87.5,218.167 87.5,199.5 Z M 170.5,231.5 C 171.5,231.5 172.5,231.5 173.5,231.5C 173.832,240.857 173.498,250.19 172.5,259.5C 161.274,251.001 160.607,241.668 170.5,231.5 Z M 337.5,231.5 C 344.222,233.579 347.555,238.246 347.5,245.5C 347.018,251.8 344.018,256.467 338.5,259.5C 337.502,250.19 337.168,240.857 337.5,231.5 Z M 286.5,324.5 C 287.656,331.989 287.822,339.655 287,347.5C 276.653,358.014 266.153,368.348 255.5,378.5C 245.181,368.681 235.014,358.681 225,348.5C 224.5,340.841 224.334,333.174 224.5,325.5C 240.199,330.563 256.199,331.729 272.5,329C 277.492,328.168 282.159,326.668 286.5,324.5 Z M 198.5,348.5 C 213.414,361.912 227.914,375.912 242,390.5C 242.667,391.167 242.667,391.833 242,392.5C 238.833,395.667 235.667,398.833 232.5,402C 231.833,402.667 231.167,402.667 230.5,402C 216.667,388.167 202.833,374.333 189,360.5C 188.333,359.833 188.333,359.167 189,358.5C 192.371,355.297 195.538,351.964 198.5,348.5 Z M 310.5,348.5 C 314.737,351.228 318.571,354.561 322,358.5C 322.667,359.167 322.667,359.833 322,360.5C 308.167,374.333 294.333,388.167 280.5,402C 279.833,402.667 279.167,402.667 278.5,402C 275.333,398.833 272.167,395.667 269,392.5C 268.333,391.833 268.333,391.167 269,390.5C 283.035,376.632 296.869,362.632 310.5,348.5 Z M 169.5,368.5 C 170.552,368.351 171.552,368.517 172.5,369C 190.167,386.667 207.833,404.333 225.5,422C 229.5,424 233.5,424 237.5,422C 243.348,415.985 249.348,410.152 255.5,404.5C 261.652,410.152 267.652,415.985 273.5,422C 276.702,423.483 280.036,423.817 283.5,423C 302.138,405.362 320.472,387.362 338.5,369C 378.722,374.538 406.888,396.038 423,433.5C 429.973,453.579 432.473,474.245 430.5,495.5C 412.167,495.5 393.833,495.5 375.5,495.5C 375.666,486.161 375.5,476.827 375,467.5C 373.471,464.484 370.971,463.151 367.5,463.5C 364.029,463.151 361.529,464.484 360,467.5C 358.614,476.766 358.114,486.1 358.5,495.5C 289.833,495.5 221.167,495.5 152.5,495.5C 152.666,487.16 152.5,478.827 152,470.5C 151.403,465.452 148.57,463.118 143.5,463.5C 140.029,463.151 137.529,464.484 136,467.5C 135.5,476.827 135.334,486.161 135.5,495.5C 117.167,495.5 98.8333,495.5 80.5,495.5C 75.1145,448.803 91.1145,411.636 128.5,384C 141.344,376.334 155.011,371.168 169.5,368.5 Z"/></g>
</svg>
