<?xml version="1.0" encoding="UTF-8"?>
<!DOCTYPE svg PUBLIC "-//W3C//DTD SVG 1.1//EN" "http://www.w3.org/Graphics/SVG/1.1/DTD/svg11.dtd">
<svg xmlns="http://www.w3.org/2000/svg" version="1.1" width="512px" height="512px" style="shape-rendering:geometricPrecision; text-rendering:geometricPrecision; image-rendering:optimizeQuality; fill-rule:evenodd; clip-rule:evenodd" xmlns:xlink="http://www.w3.org/1999/xlink">
<g><path style="opacity:0.928" fill="#000000" d="M 110.5,-0.5 C 122.833,-0.5 135.167,-0.5 147.5,-0.5C 185.722,4.34908 222.055,15.6824 256.5,33.5C 290.656,15.8903 326.656,4.557 364.5,-0.5C 377.5,-0.5 390.5,-0.5 403.5,-0.5C 463.81,7.81084 499.81,41.8108 511.5,101.5C 511.5,119.5 511.5,137.5 511.5,155.5C 505.74,190.448 494.74,223.781 478.5,255.5C 494.742,287.224 505.742,320.557 511.5,355.5C 511.5,373.167 511.5,390.833 511.5,408.5C 500.251,468.748 464.251,503.081 403.5,511.5C 390.5,511.5 377.5,511.5 364.5,511.5C 326.654,506.442 290.654,495.109 256.5,477.5C 222.055,495.318 185.722,506.651 147.5,511.5C 135.167,511.5 122.833,511.5 110.5,511.5C 37.556,500.037 0.889381,457.204 0.5,383C 0.769329,352.319 6.436,322.653 17.5,294C 9.29577,286.095 3.79577,276.595 1,265.5C -1.39406,252.2 0.939269,239.867 8,228.5C 11.1802,224.655 14.3469,220.822 17.5,217C 3.92506,182.051 -1.57494,145.885 1,108.5C 6.64266,54.3396 35.476,19.5063 87.5,4C 95.2628,2.26571 102.929,0.765707 110.5,-0.5 Z M 111.5,15.5 C 156.191,13.756 198.525,22.9227 238.5,43C 166.181,84.3136 107.015,139.814 61,209.5C 51.2185,206.982 41.3852,206.982 31.5,209.5C 22.1923,182.961 16.8589,155.628 15.5,127.5C 16.5154,63.1773 48.5154,25.8439 111.5,15.5 Z M 366.5,15.5 C 391.762,12.8946 416.096,16.3946 439.5,26C 471.108,42.2989 489.608,68.1323 495,103.5C 499.176,150.622 490.509,195.289 469,237.5C 453.809,211.11 436.642,186.11 417.5,162.5C 428.863,144.148 429.363,125.481 419,106.5C 418,105.5 417,104.5 416,103.5C 411.923,106.788 407.756,109.955 403.5,113C 414.667,130.649 412.333,146.315 396.5,160C 374.407,170.415 358.241,164.581 348,142.5C 344.311,121.695 352.478,108.195 372.5,102C 380.398,100.684 387.898,101.85 395,105.5C 398.32,101.538 401.153,97.2047 403.5,92.5C 391.66,85.4842 378.993,83.6508 365.5,87C 359.774,88.6966 354.441,91.1966 349.5,94.5C 325.89,75.3575 300.89,58.1909 274.5,43C 303.801,28.8469 334.468,19.6802 366.5,15.5 Z M 255.5,51.5 C 285.173,67.0077 312.84,85.5077 338.5,107C 327.529,125.742 328.029,144.242 340,162.5C 358.839,182.935 380.506,186.601 405,173.5C 426.044,199.056 444.544,226.389 460.5,255.5C 434.341,303.507 401.175,346.174 361,383.5C 340.961,369.047 320.795,368.88 300.5,383C 303.724,387.297 307.057,391.464 310.5,395.5C 327.952,384.689 343.452,387.023 357,402.5C 365.689,418.091 363.856,432.258 351.5,445C 335.387,455.932 320.22,454.766 306,441.5C 297.182,429.497 296.349,416.997 303.5,404C 299.065,401.366 294.565,398.866 290,396.5C 286.123,401.45 283.789,407.116 283,413.5C 281.743,422.98 282.909,432.146 286.5,441C 277.031,447.907 267.031,454.074 256.5,459.5C 183.882,419.388 124.049,365.055 77,296.5C 76.3333,295.833 76.3333,295.167 77,294.5C 90.9756,283.219 97.1423,268.719 95.5,251C 90.8766,251.146 86.2099,251.48 81.5,252C 80.5175,264.97 74.8509,275.303 64.5,283C 48.777,290.776 34.9436,288.276 23,275.5C 12.8664,258.853 14.6997,243.686 28.5,230C 48.3615,218.882 64.6949,222.716 77.5,241.5C 82.3257,239.254 86.9923,236.754 91.5,234C 87.4474,227.109 82.4474,220.942 76.5,215.5C 123.522,146.802 183.188,92.1358 255.5,51.5 Z M 249.5,122.5 C 278.802,121.969 293.302,136.303 293,165.5C 288.308,159.641 283.808,153.641 279.5,147.5C 260.512,146.5 241.512,146.167 222.5,146.5C 227.183,133.656 236.183,125.656 249.5,122.5 Z M 219.5,162.5 C 236.503,162.333 253.503,162.5 270.5,163C 277.333,171.833 284.167,180.667 291,189.5C 291.163,194.204 289.83,198.537 287,202.5C 272.386,219.556 255.22,222.723 235.5,212C 228.371,206.858 223.538,200.025 221,191.5C 219.609,181.9 219.109,172.233 219.5,162.5 Z M 242.5,232.5 C 251.476,235.116 260.476,235.116 269.5,232.5C 274.374,248.119 268.707,255.286 252.5,254C 248.836,252.998 245.669,251.164 243,248.5C 242.501,243.177 242.334,237.844 242.5,232.5 Z M 468.5,273.5 C 489.021,312.927 498.187,354.927 496,399.5C 488.951,455.549 457.451,487.382 401.5,495C 356.796,497.241 314.462,488.241 274.5,468C 281.601,463.7 288.768,459.534 296,455.5C 315.258,470.655 335.758,472.488 357.5,461C 376.258,446.39 382.425,427.557 376,404.5C 375.063,401.344 373.563,398.511 371.5,396C 410.483,360.212 442.816,319.378 468.5,273.5 Z M 31.5,301.5 C 41.3852,304.018 51.2185,304.018 61,301.5C 107.015,371.186 166.181,426.686 238.5,468C 198.854,488.079 156.854,497.079 112.5,495C 57.3733,488.206 25.5399,457.373 17,402.5C 14.8755,379.577 16.5422,356.911 22,334.5C 24.8697,323.394 28.0363,312.394 31.5,301.5 Z"/></g>
<g><path style="opacity:0.935" fill="#000000" d="M 247.5,106.5 C 273.688,104.172 292.854,114.505 305,137.5C 307.113,142.284 308.446,147.284 309,152.5C 309.888,166.541 309.554,180.541 308,194.5C 304.479,206.839 297.645,216.839 287.5,224.5C 286.167,231.167 286.167,237.833 287.5,244.5C 297.597,247.191 307.597,250.191 317.5,253.5C 315.755,258.4 314.422,263.4 313.5,268.5C 302.879,265.887 292.379,262.887 282,259.5C 265,274.167 248,274.167 231,259.5C 212.516,264.994 194.016,270.494 175.5,276C 169.933,279.287 166.433,284.121 165,290.5C 164.5,304.496 164.333,318.496 164.5,332.5C 173.167,332.5 181.833,332.5 190.5,332.5C 190.5,325.833 190.5,319.167 190.5,312.5C 195.833,312.5 201.167,312.5 206.5,312.5C 206.5,319.167 206.5,325.833 206.5,332.5C 212.5,332.5 218.5,332.5 224.5,332.5C 224.5,337.833 224.5,343.167 224.5,348.5C 193.833,348.5 163.167,348.5 132.5,348.5C 132.5,343.167 132.5,337.833 132.5,332.5C 137.833,332.5 143.167,332.5 148.5,332.5C 148.333,317.496 148.5,302.496 149,287.5C 151.889,274.553 159.389,265.387 171.5,260C 189.506,254.832 207.506,249.665 225.5,244.5C 226.664,238.193 226.831,231.859 226,225.5C 215.275,217.724 208.275,207.39 205,194.5C 203.422,180.214 203.089,165.88 204,151.5C 208.9,127.101 223.4,112.101 247.5,106.5 Z M 249.5,122.5 C 236.183,125.656 227.183,133.656 222.5,146.5C 241.512,146.167 260.512,146.5 279.5,147.5C 283.808,153.641 288.308,159.641 293,165.5C 293.302,136.303 278.802,121.969 249.5,122.5 Z M 219.5,162.5 C 219.109,172.233 219.609,181.9 221,191.5C 223.538,200.025 228.371,206.858 235.5,212C 255.22,222.723 272.386,219.556 287,202.5C 289.83,198.537 291.163,194.204 291,189.5C 284.167,180.667 277.333,171.833 270.5,163C 253.503,162.5 236.503,162.333 219.5,162.5 Z M 242.5,232.5 C 242.334,237.844 242.501,243.177 243,248.5C 245.669,251.164 248.836,252.998 252.5,254C 268.707,255.286 274.374,248.119 269.5,232.5C 260.476,235.116 251.476,235.116 242.5,232.5 Z"/></g>
<g><path style="opacity:0.882" fill="#000000" d="M 370.5,125.5 C 375.833,125.5 381.167,125.5 386.5,125.5C 386.5,130.833 386.5,136.167 386.5,141.5C 381.167,141.5 375.833,141.5 370.5,141.5C 370.5,136.167 370.5,130.833 370.5,125.5 Z"/></g>
<g><path style="opacity:0.882" fill="#000000" d="M 40.5,247.5 C 45.8333,247.5 51.1667,247.5 56.5,247.5C 56.5,252.833 56.5,258.167 56.5,263.5C 51.1667,263.5 45.8333,263.5 40.5,263.5C 40.5,258.167 40.5,252.833 40.5,247.5 Z"/></g>
<g><path style="opacity:0.934" fill="#000000" d="M 330.5,257.5 C 348.865,260.031 360.032,270.364 364,288.5C 364.5,303.163 364.667,317.83 364.5,332.5C 369.833,332.5 375.167,332.5 380.5,332.5C 380.5,337.833 380.5,343.167 380.5,348.5C 333.167,348.5 285.833,348.5 238.5,348.5C 238.5,343.167 238.5,337.833 238.5,332.5C 261.167,332.5 283.833,332.5 306.5,332.5C 306.5,325.833 306.5,319.167 306.5,312.5C 311.833,312.5 317.167,312.5 322.5,312.5C 322.5,319.167 322.5,325.833 322.5,332.5C 331.167,332.5 339.833,332.5 348.5,332.5C 348.667,318.496 348.5,304.496 348,290.5C 346.733,286.131 344.567,282.297 341.5,279C 336.737,275.952 331.737,273.452 326.5,271.5C 327.836,266.821 329.169,262.154 330.5,257.5 Z"/></g>
<g><path style="opacity:0.888" fill="#000000" d="M 278.5,273.5 C 285.235,275.022 291.902,276.855 298.5,279C 299.428,279.388 300.095,280.055 300.5,281C 299.359,285.421 298.026,289.754 296.5,294C 289.153,292.836 281.82,291.336 274.5,289.5C 275.629,284.112 276.963,278.779 278.5,273.5 Z"/></g>
<g><path style="opacity:0.862" fill="#000000" d="M 314.5,283.5 C 319.919,284.47 324.919,286.303 329.5,289C 328.198,293.905 326.698,298.738 325,303.5C 320.319,301.663 315.486,300.329 310.5,299.5C 311.209,293.997 312.542,288.664 314.5,283.5 Z"/></g>
<g><path style="opacity:0.882" fill="#000000" d="M 322.5,412.5 C 327.833,412.5 333.167,412.5 338.5,412.5C 338.5,417.833 338.5,423.167 338.5,428.5C 333.167,428.5 327.833,428.5 322.5,428.5C 322.5,423.167 322.5,417.833 322.5,412.5 Z"/></g>
</svg>
