<svg width="752" height="454" viewBox="0 0 752 454" fill="none" xmlns="http://www.w3.org/2000/svg">
<g clip-path="url(#clip0_480_201)">
<mask id="mask0_480_201" style="mask-type:alpha" maskUnits="userSpaceOnUse" x="314" y="62" width="373" height="371">
<path d="M468.726 367.062C457.005 367.062 453.488 359.769 449.438 345.792C449.185 344.826 449.125 343.82 449.261 342.831C449.397 341.842 449.727 340.889 450.231 340.027C450.762 338.946 451.698 338.117 452.835 337.72C457.732 336.496 462.754 336.407 467.614 336.318C474.291 336.199 480.611 336.088 486.814 333.351C488.87 332.326 490.853 331.161 492.749 329.864C498.417 326.221 504.834 322.096 510.62 324.025C514.515 325.323 516.667 327.223 517.023 329.671C517.846 335.346 508.447 341.912 502.23 346.259C501.124 347.001 500.167 347.698 499.425 348.255C496.985 350.201 494.669 352.297 492.489 354.531C487.17 359.724 481.131 365.659 474.031 366.661C472.274 366.92 470.502 367.054 468.726 367.062ZM453.384 339.879C452.85 340.15 452.422 340.591 452.168 341.133C451.458 342.354 451.25 343.804 451.589 345.176C456.1 360.808 459.186 366.527 473.756 364.465C480.137 363.56 485.627 358.166 490.968 352.951C493.216 350.646 495.607 348.486 498.127 346.482C498.869 345.903 499.871 345.228 500.991 344.442C506.058 340.903 515.48 334.315 514.857 329.997C514.627 328.447 512.98 327.156 509.953 326.147C505.175 324.552 499.233 328.372 493.988 331.741C491.994 333.107 489.904 334.327 487.733 335.391C481.116 338.358 474.283 338.455 467.703 338.573C462.94 338.625 458.036 338.744 453.384 339.879Z" fill="#2E3120"/>
<path d="M665.992 221.46C662.792 221.442 659.678 220.419 657.09 218.537C647.445 211.734 643.409 195.323 642.631 187.593C641.555 176.814 645.702 168.178 649.708 159.839C651.874 155.329 654.107 150.67 655.539 145.669C656.741 141.47 656.86 136.099 657.023 130.416C657.327 117.285 657.676 102.403 672.053 97.6103C675.244 96.542 676.505 97.1726 677.759 98.0925C677.914 98.2038 678.07 98.3225 678.241 98.4338C678.315 98.4791 678.384 98.5312 678.448 98.5896L679.843 100.014C679.894 100.061 679.939 100.113 679.977 100.17C681.809 102.892 681.023 108.286 680.103 111.053C676.23 122.664 672.276 136.537 672.276 151.374C672.276 158.437 675.488 163.905 678.894 169.699C684.376 179.039 690.593 189.626 682.989 208.648C680.348 215.25 675.919 219.501 670.191 220.933C668.819 221.281 667.408 221.458 665.992 221.46ZM674.798 99.2721C674.08 99.3145 673.372 99.4645 672.699 99.7172C659.805 104.02 659.493 117.463 659.189 130.468C659.056 136.299 658.93 141.804 657.646 146.285C656.162 151.478 653.885 156.212 651.711 160.796C647.66 169.239 643.832 177.207 644.849 187.371C645.709 195.947 650.042 210.836 658.366 216.712C659.967 217.877 661.81 218.668 663.758 219.025C665.706 219.382 667.71 219.296 669.62 218.774C675.948 217.194 679.265 211.942 680.889 207.817C688.093 189.811 682.425 180.159 676.942 170.827C673.537 165.032 670.021 159.045 670.021 151.374C670.021 136.218 674.034 122.129 677.959 110.348C678.805 107.819 679.324 103.382 678.152 101.498L676.92 100.244C676.75 100.133 676.586 100.014 676.423 99.8953C675.976 99.4962 675.398 99.2746 674.798 99.2721Z" fill="#2E3120"/>
<path d="M465.344 267.887C464.879 267.889 464.416 267.856 463.956 267.79C460.484 267.293 458.021 264.956 456.656 260.839C455.291 256.722 457.71 252.775 460.054 248.969C461.538 246.58 462.91 244.317 463.259 242.21C466.345 223.663 455.573 211.571 431.232 206.162L430.223 205.94C426.617 205.146 422.893 204.33 419.681 202.475C419.45 202.34 419.238 202.176 419.05 201.986C418.625 201.576 418.332 201.049 418.208 200.473C418.084 199.896 418.135 199.295 418.354 198.747C418.573 198.2 418.95 197.73 419.438 197.397C419.925 197.065 420.5 196.885 421.09 196.881C426.551 196.74 431.247 196.34 435.394 195.991C449.111 194.841 459.015 194.01 479.966 203.321C493.839 209.486 498.513 220.451 494.64 237.833C493.451 243.248 491.263 248.393 488.186 253.005C485.181 257.33 474.001 267.887 465.344 267.887ZM447.679 197.505C443.785 197.505 439.912 197.831 435.587 198.195C431.41 198.551 426.684 198.936 421.15 199.092C420.994 199.083 420.84 199.122 420.708 199.205C420.576 199.288 420.474 199.411 420.416 199.555C420.357 199.7 420.346 199.859 420.383 200.01C420.42 200.161 420.504 200.297 420.623 200.398C420.675 200.449 420.732 200.494 420.794 200.531C423.709 202.216 427.263 202.995 430.698 203.751L431.714 203.974C457.42 209.686 468.808 222.669 465.455 242.552C465.032 245.089 463.467 247.634 461.953 250.104C459.772 253.643 457.717 256.989 458.763 260.119C459.861 263.413 461.664 265.194 464.275 265.572C471.65 266.633 483.245 256.202 486.354 251.714C489.253 247.33 491.325 242.452 492.467 237.321C496.109 220.933 491.977 211.059 479.061 205.324C465.01 199.092 456.278 197.505 447.679 197.505Z" fill="#2E3120"/>
<path d="M432.612 70.5094C431.024 73.1876 429.377 75.9622 429.377 79.412C429.377 82.1198 430.512 84.5458 431.603 86.8975C432.515 88.6227 433.187 90.4649 433.598 92.3726C434.452 97.5658 431.373 102.017 428.687 104.888C420.482 113.531 403.53 120.015 392.409 118.769C386.808 118.138 383.121 116.261 381.14 113.041C377.267 106.758 380.621 96.312 384.063 87.0162C384.582 85.6215 385.087 84.0932 385.621 82.4759C387.483 76.8599 389.59 70.4871 393.04 66.9558C393.411 66.5848 393.856 66.1545 394.36 65.6723C395.421 64.6411 396.705 63.4022 397.973 62.0223H394.939C394.197 62.7641 393.455 63.4615 392.854 64.0698C392.342 64.5669 391.883 65.012 391.504 65.3904C387.646 69.2927 385.45 75.9251 383.514 81.7786C382.987 83.381 382.49 84.887 381.986 86.2298C378.358 96.0301 374.834 107.069 379.285 114.206C381.622 117.997 385.962 120.275 392.209 120.98C393.221 121.091 394.239 121.146 395.258 121.143C406.817 121.143 422.448 114.733 430.349 106.416C434.734 101.802 436.633 96.8239 435.839 92.0165C435.396 89.9059 434.665 87.8664 433.665 85.9553C432.627 83.7297 431.64 81.6302 431.64 79.412C431.64 76.5705 433.057 74.2188 434.563 71.6445C436.188 68.8995 437.983 65.8504 437.849 62H435.624C435.735 65.2198 434.185 67.8015 432.612 70.5094Z" fill="#2E3120"/>
<path d="M351.925 70.6355C354.566 72.5644 358.038 73.0021 362.237 71.9412C365.783 71.0435 369.745 67.0003 374.241 62.0223H371.221C367.623 65.932 364.299 69.1221 361.695 69.7823C358.112 70.6874 355.352 70.3758 353.238 68.8401C351.279 67.4009 350.003 64.9898 349.135 62.0223H346.798C347.778 65.6575 349.336 68.7437 351.925 70.6355Z" fill="#2E3120"/>
<path d="M454.957 78.3956C454.275 82.9211 453.206 88.7819 450.966 93.9751C447.084 102.769 442.041 111.003 435.973 118.457C433.005 122.1 428.902 125.282 424.911 128.369C423.821 129.207 422.752 130.031 421.736 130.854C418.13 133.776 413.99 135.969 409.547 137.308C385.22 144.66 374.04 124.978 363.231 105.942C354.959 91.3859 347.147 77.6018 333.897 75.977C327.22 75.1461 320.595 75.9251 314 77.3866V79.6716C320.551 78.1878 327.131 77.3718 333.623 78.1878C345.767 79.6716 353.312 92.981 361.295 107.04C370.457 123.176 380.665 141.166 399.702 141.166C403.266 141.131 406.805 140.573 410.207 139.512C414.925 138.095 419.321 135.769 423.145 132.664C424.154 131.856 425.215 131.039 426.291 130.201C430.386 127.041 434.615 123.776 437.723 119.934C443.922 112.305 449.072 103.882 453.036 94.8876C455.38 89.4274 456.478 83.381 457.175 78.722C458.117 73.1998 458.177 67.5633 457.353 62.0223H455.128C455.914 66.57 455.944 71.9338 454.957 78.3956Z" fill="#2E3120"/>
<path d="M684.94 296.457C682.17 296.246 679.39 296.211 676.616 296.353C661.66 297.236 648.232 304.514 635.241 311.517C625.864 316.584 616.16 321.829 606.078 324.515C581.233 331.147 561.321 323.365 548.508 302.006C544.435 295.225 541.609 289.876 542.269 282.65C543.211 272.264 546.987 263.361 550.986 253.977C552.974 249.303 555.029 244.466 556.706 239.428C559.013 232.499 559.362 225.859 559.733 218.826C559.852 216.601 559.97 214.227 560.171 211.897C560.512 207.735 561.832 203.521 563.138 199.448C564.195 196.302 565.057 193.093 565.72 189.841C567.76 178.639 562.151 158.756 554.391 149.713C544.599 138.28 530.414 133.347 512.238 135.046C493.765 136.774 476.984 144.816 468.623 149.46C456.196 156.367 434.199 166.524 426.565 156.983C426.099 156.415 425.759 155.754 425.567 155.044C425.375 154.334 425.336 153.592 425.453 152.866C426.098 147.747 432.493 141.737 436.165 138.963C439.029 136.819 442.1 134.682 445.068 132.62C459.579 122.545 474.58 112.121 477.51 93.07C479.343 81.1405 478.067 71.689 474.365 62.0519H471.961C475.774 71.6445 477.154 80.9551 475.307 92.7287C472.495 110.808 457.925 120.95 443.77 130.765C440.802 132.835 437.694 134.986 434.8 137.153C433.71 137.976 424.132 145.313 423.212 152.554C423.059 153.576 423.121 154.619 423.395 155.615C423.668 156.612 424.147 157.54 424.8 158.341C428.88 163.445 436.529 164.387 447.546 161.138C454.008 159.231 461.449 155.944 469.676 151.374C477.904 146.804 494.344 138.918 512.416 137.234C529.828 135.602 543.374 140.283 552.678 151.13C559.948 159.609 565.408 178.935 563.502 189.411C562.853 192.572 562.013 195.691 560.987 198.751C559.674 202.943 558.316 207.275 557.952 211.682C557.752 214.049 557.626 216.408 557.507 218.685C557.151 225.563 556.81 232.039 554.592 238.716C552.945 243.664 550.882 248.457 548.939 253.086C545.051 262.241 541.023 271.708 540.036 282.435C539.294 290.314 542.432 296.227 546.579 303.134C556.869 320.279 571.514 329.048 589.512 329.048C595.3 329 601.056 328.194 606.635 326.651C616.976 323.899 626.791 318.587 636.31 313.461C649.085 306.554 662.276 299.409 676.757 298.564C679.477 298.424 682.203 298.458 684.918 298.668L684.94 296.457Z" fill="#2E3120"/>
<path d="M684.94 259.6C673.257 263.509 661.938 268.429 651.11 274.304C647.268 276.466 643.575 278.882 640.056 281.538C636.25 284.275 632.319 287.109 628.119 289.209C614.81 295.886 590.669 295.886 579.497 285.959C564.303 272.449 568.732 255.839 573.013 239.77C574.645 233.656 577.382 226.052 580.29 217.995C590.276 190.279 602.71 155.781 589.059 135.305C573.858 112.507 540.348 113.746 514.055 122.508C511.963 123.205 509.367 124.377 506.637 125.624C498.142 129.459 486.532 134.727 480.122 129.919C478.2 128.48 477.154 126.952 476.917 125.305C476.457 122.026 479.194 118.405 481.836 114.918C482.874 113.553 483.853 112.255 484.662 110.957C485.745 109.228 486.888 107.485 488.075 105.637C495.679 93.8935 504.307 80.5915 502.727 66.3177C502.56 64.8673 502.285 63.4314 501.903 62.0223H499.596C500.029 63.5125 500.336 65.0361 500.516 66.5774C502 80.0351 493.609 92.981 486.205 104.413C485.003 106.268 483.868 108.019 482.778 109.762C482.036 110.979 481.064 112.233 480.062 113.568C477.139 117.426 474.127 121.417 474.713 125.616C475.033 127.842 476.405 129.912 478.786 131.7C486.205 137.294 498.075 131.945 507.542 127.649C510.235 126.432 512.772 125.282 514.753 124.622C540.266 116.12 572.701 114.785 587.205 136.544C600.232 156.085 588.013 189.997 578.191 217.239C575.275 225.34 572.516 232.996 570.861 239.198C566.41 255.913 561.795 273.206 578.02 287.621C583.659 292.636 592.576 295.626 603.111 296.041C603.927 296.041 604.743 296.093 605.559 296.093C614.239 296.093 622.889 294.305 629.114 291.197C633.476 289.016 637.482 286.13 641.355 283.34C644.796 280.746 648.404 278.382 652.156 276.263C662.66 270.573 673.627 265.783 684.94 261.944V259.6Z" fill="#2E3120"/>
<path d="M684.94 62.0223H684.762C684.762 64.9898 683.085 67.8831 679.829 70.7319C664.909 83.7594 644.738 81.5634 625.211 79.4342C615.678 78.3956 605.826 77.3198 596.931 78.1285C589.119 78.8704 582.435 82.4611 575.965 85.9553C569.496 89.4496 563.539 92.6842 556.424 93.4706C547.128 94.5092 537.135 93.7154 529.717 91.3637C519.59 88.1513 513.929 82.3053 512.891 73.9814C512.386 69.9678 513.158 66.0729 514.122 62.0223H511.837C510.91 65.9913 510.153 70.0642 510.68 74.2633C512.824 91.5566 532.513 96.1488 548.16 96.1488C551.002 96.1488 553.843 95.9952 556.669 95.6888C564.214 94.8505 570.728 91.3266 577.026 87.9139C583.584 84.3677 589.779 81.0144 597.131 80.3467C605.804 79.5603 615.114 80.5693 624.967 81.645C644.997 83.8261 665.666 86.0963 681.297 72.4012C682.69 71.2145 683.916 69.8444 684.94 68.3282L684.94 62.0223Z" fill="#2E3120"/>
<path d="M589.876 62.0223C588.57 62.4525 587.227 62.8977 585.847 63.3725C574.341 67.2599 561.298 71.6741 550.979 65.4943C549.445 64.6236 548.11 63.4408 547.062 62.0223H544.406C545.681 64.2943 547.571 66.1609 549.859 67.4083C553.828 69.7295 558.363 70.908 562.96 70.8135C570.794 70.8135 578.992 68.0389 586.559 65.4794C588.941 64.6708 591.196 63.9066 593.362 63.2538C595.212 62.7169 597.096 62.3055 599.001 62.0223H589.876Z" fill="#2E3120"/>
<path d="M684.94 115.438C684.851 115.734 684.747 116.039 684.658 116.343C681.854 126.165 682.277 137.115 684.94 147.969V115.438Z" fill="#2E3120"/>
<path d="M684.94 249.125L683.798 249.429C678.604 250.853 673.931 253.576 669.442 256.202C667.216 257.486 664.991 258.821 662.676 259.964C649.411 266.596 618.393 274.571 606.783 262.931C580.261 236.439 596.745 195.242 608.779 165.144C609.647 162.918 610.752 160.789 611.917 158.467C614.217 153.934 616.591 149.245 617.214 144.275C618.341 135.253 610.975 130.179 604.476 125.661C596.96 120.468 590.469 116.016 595.143 106.632C596.382 104.146 598.34 101.809 600.24 99.5392C600.833 98.7973 601.427 98.1222 601.99 97.4174C604.765 93.9454 609.884 94.7244 614.395 95.4069C615.181 95.5256 615.938 95.6443 616.665 95.7333C626.539 96.9723 649.671 101.379 651.259 115.668C652.431 126.18 647.49 133.888 642.267 142.042C640.132 145.258 638.166 148.584 636.377 152.005C634.715 155.366 633.09 158.467 631.525 161.434C621.086 181.176 614.194 194.218 628.75 219.687C632.215 225.755 639.671 236.424 650.658 239.718C659.709 242.433 672.417 240.845 684.947 236.008V233.56C672.61 238.464 659.953 240.192 651.296 237.596C641.05 234.525 633.98 224.368 630.679 218.589C616.732 194.181 623.038 182.237 633.491 162.48C635.071 159.513 636.703 156.397 638.38 153.051C640.125 149.695 642.046 146.433 644.137 143.281C649.33 135.12 654.716 126.751 653.462 115.46C651.704 99.5985 627.333 94.8653 616.939 93.567C616.197 93.478 615.456 93.3593 614.714 93.248C609.862 92.5062 603.815 91.5862 600.232 96.0672C599.683 96.7571 599.105 97.4471 598.518 98.1519C596.441 100.443 594.636 102.968 593.14 105.675C587.598 116.751 595.529 122.233 603.192 127.53C609.75 132.071 615.953 136.351 614.988 144.037C614.417 148.622 612.132 153.133 609.914 157.495C608.779 159.721 607.606 162.058 606.694 164.328C594.431 194.99 577.634 236.973 605.21 264.534C609.988 269.319 617.54 271.114 625.849 271.114C639.366 271.114 654.879 266.351 663.685 261.959C666.044 260.78 668.352 259.429 670.577 258.124C674.939 255.564 679.48 252.931 684.398 251.58L684.955 251.425L684.94 249.125Z" fill="#2E3120"/>
<path d="M684.94 408.562C682.076 409.193 679.22 409.801 676.409 410.395C663.018 413.236 650.376 415.922 641.911 420.158C635.561 423.328 629.869 427.673 625.137 432.963H628.209C632.455 428.546 637.425 424.888 642.905 422.146C651.118 418.044 663.626 415.388 676.868 412.576C679.532 412.012 682.232 411.434 684.94 410.84V408.562Z" fill="#2E3120"/>
<path d="M542.625 425.025C540.066 412.235 527.253 408.562 515.918 405.328C507.43 402.894 499.411 400.602 497.319 394.897C495.583 390.186 497.853 383.22 504.263 373.605C507.194 369.087 511.296 365.448 516.133 363.078C522.483 359.902 528.107 355.199 533.315 348.693C534.947 346.66 536.097 344.078 537.21 341.585C539.858 335.65 542.403 329.982 551.149 329.982C552.464 329.99 553.776 330.1 555.074 330.309C561.751 331.333 565.223 334.508 568.91 337.869C574.511 342.98 580.305 348.255 597.153 345.458C614.335 342.594 632.764 334.374 649.085 327.126L651.964 325.843C655.395 324.234 658.729 322.425 661.949 320.427C667.283 317.259 672.803 313.973 679.012 312.741C681.008 312.34 683.004 312.044 684.948 311.843V309.618C682.826 309.833 680.689 310.144 678.545 310.575C671.987 311.88 666.304 315.263 660.807 318.528C657.661 320.483 654.404 322.251 651.051 323.825L648.165 325.108C632.014 332.304 613.697 340.465 596.79 343.277C581.025 345.911 575.869 341.214 570.416 336.236C566.647 332.802 562.752 329.255 555.423 328.12C541.728 326.006 538.248 333.81 535.184 340.695C534.261 343.043 533.053 345.268 531.586 347.32C526.578 353.567 521.2 358.077 515.146 361.104C509.979 363.657 505.59 367.549 502.438 372.373C495.508 382.76 493.223 390.179 495.249 395.669C497.734 402.427 506.281 404.875 515.324 407.464C526.541 410.677 538.144 414 540.437 425.462C540.929 427.938 541.259 430.444 541.423 432.963H543.649C543.482 430.297 543.14 427.646 542.625 425.025Z" fill="#2E3120"/>
<path d="M684.94 388.591C682.618 389.578 680.325 390.572 678.07 391.559C663.663 397.813 650.057 403.718 634.025 406.93C625.456 408.644 615.478 410.343 613.816 410.18C608.178 406.285 600.462 392.864 598.978 386.848C595.781 374.065 608.074 365.088 617.956 357.877C619.625 356.653 621.205 355.503 622.659 354.368C628.142 350.11 633.921 349.383 640.041 348.611C643.897 348.251 647.707 347.505 651.414 346.385C656.034 344.708 660.537 342.725 664.894 340.45C670.273 337.794 675.83 335.049 681.32 333.677C682.499 333.38 683.716 333.158 684.947 332.972V330.746C683.545 330.941 682.153 331.209 680.778 331.548C675.058 332.98 669.39 335.776 663.908 338.484C659.642 340.711 655.233 342.651 650.71 344.293C647.14 345.371 643.472 346.089 639.759 346.437C633.609 347.216 627.259 348.017 621.294 352.654C619.87 353.76 618.327 354.88 616.642 356.119C606.256 363.723 593.258 373.182 596.819 387.426C598.452 393.97 606.397 407.939 612.725 412.161C612.859 412.25 613.074 412.391 614.076 412.391C616.042 412.391 621.064 411.827 634.462 409.149C650.732 405.892 664.442 399.942 678.975 393.636L684.962 391.054L684.94 388.591Z" fill="#2E3120"/>
<path d="M684.94 372.715C682.247 373.746 679.584 374.814 676.943 375.868C665.911 380.319 654.493 384.882 642.386 385.98C634.114 386.721 629.136 385.757 628.72 383.309C627.838 378.116 643.506 366.401 652.75 364.087C661.593 361.861 670.978 359.353 679.702 355.867C681.016 355.34 682.818 354.687 684.94 353.967V351.645C682.195 352.558 680.044 353.329 678.879 353.797C670.273 357.239 660.977 359.732 652.208 361.957C643.439 364.183 625.285 376.387 626.532 383.709C627.207 387.708 632.652 388.517 637.252 388.517C639.418 388.517 641.392 388.339 642.586 388.227C655.02 387.1 666.586 382.456 677.773 377.967C680.14 377.018 682.529 376.061 684.94 375.126V372.715Z" fill="#2E3120"/>
<path d="M659.842 432.963H659.716C658.541 432.685 657.316 432.697 656.148 433L659.842 432.963Z" fill="#2E3120"/>
<path d="M684.94 426.538C682.489 427.987 680.566 430.181 679.45 432.8C679.429 432.853 679.412 432.908 679.398 432.963H681.817C682.564 431.506 683.632 430.238 684.94 429.254V426.538Z" fill="#2E3120"/>
<path d="M592.353 403.933C586.559 399.593 582.969 395.364 579.957 389.333C577.33 384.08 575.936 378.479 574.585 373.063C572.864 366.134 571.076 358.968 566.707 352.409C564.882 349.672 562.018 348.092 558.19 347.706C551.253 347.023 543.56 350.503 542.277 351.786C539.888 354.175 537.662 356.126 535.696 357.847C529.88 362.952 525.681 366.639 523.359 375.927C521.534 383.212 530.421 388.428 539.828 393.947C547.885 398.681 556.216 403.592 557.418 409.586C558.079 412.672 557.337 419.609 556.595 427.607C556.424 429.335 556.246 431.13 556.076 432.963H558.301C558.464 431.205 558.635 429.483 558.798 427.822C559.637 419.297 560.282 412.561 559.622 409.149C558.22 402.153 549.451 397.011 540.971 392.026C532.298 386.944 524.115 382.137 525.532 376.446C527.684 367.833 531.467 364.517 537.18 359.502C539.168 357.758 541.423 355.792 543.857 353.337C544.688 352.506 550.719 349.828 556.38 349.828C556.921 349.828 557.455 349.828 557.982 349.902C561.105 350.213 563.428 351.467 564.867 353.611C569.021 359.843 570.676 366.505 572.434 373.56C573.814 379.095 575.231 384.815 577.968 390.29C581.151 396.655 584.935 401.114 591.018 405.677C597.435 410.484 596.3 422.695 594.535 432.926H596.76C598.608 422.235 599.661 409.416 592.353 403.933Z" fill="#2E3120"/>
<path d="M532.269 306.71C522.676 300.315 508.046 308.935 493.898 317.215C485.931 321.896 478.401 326.31 472.77 327.334C457.843 330.049 444.289 329.292 428.546 327.334C425.282 326.926 421.558 325.501 417.626 323.995C410.689 321.339 403.53 318.602 397.232 320.701C390.169 323.053 388.232 337.023 386.682 348.24C385.94 353.344 385.302 358.174 384.315 360.199C383.9 360.674 381.518 361.935 379.226 363.167C368.372 368.946 345.79 380.972 337.859 402.331C335.166 409.579 332.762 418.585 338.118 423.934C344.795 430.611 358.528 424.083 366.733 420.188C368.068 419.55 369.226 419.001 370.168 418.6C387.646 411.107 411.987 403.926 428.65 412.257C437.004 416.434 445.431 424.676 451.708 432.978H454.519C447.969 423.942 438.873 414.883 429.644 410.269C424.021 407.457 417.611 406.315 410.904 406.315C396.809 406.315 381.422 411.352 369.292 416.552C368.313 416.968 367.141 417.532 365.776 418.177C358.097 421.82 345.248 427.918 339.691 422.361C335.24 417.91 337.466 409.749 339.944 403.11C347.585 382.515 369.641 370.771 380.272 365.118C384.486 362.892 385.844 362.15 386.289 361.23C387.446 358.908 388.114 354.101 388.885 348.537C390.28 338.484 392.187 324.715 397.936 322.801C403.471 320.954 410.259 323.543 416.825 326.065C420.897 327.623 424.733 329.092 428.264 329.537C444.222 331.525 457.94 332.29 473.17 329.537C479.187 328.447 486.88 323.929 495.026 319.151C507.95 311.561 522.602 302.956 531.03 308.572C537.981 313.208 532.825 323.157 529.412 329.738C529.056 330.42 528.722 331.066 528.426 331.659C524.019 340.473 511.028 356.616 501.488 360.852L500.16 361.438C490.975 365.489 475.611 372.27 474.098 382.879C472.08 396.974 484.899 407.027 498.468 417.643C504.745 422.547 511.08 427.525 515.947 432.978H518.915C513.773 426.783 506.718 421.263 499.848 415.914C486.799 405.714 474.476 396.077 476.309 383.227C477.651 373.835 492.882 367.114 501.065 363.508L502.4 362.914C512.527 358.411 525.762 342.001 530.421 332.683L531.393 330.791C534.939 323.906 540.874 312.452 532.269 306.71Z" fill="#2E3120"/>
<path d="M482.993 425.819C479.884 421.464 477.125 416.642 474.454 411.975C472.792 409.074 471.071 406.04 469.261 403.221C466.071 398.117 464.646 392.241 463.274 386.551C461.745 380.275 460.173 373.783 456.226 368.256C450.758 360.592 443.48 357.128 436.447 353.715C432.182 351.66 427.76 349.531 423.68 346.474C422.359 345.48 420.905 343.551 419.369 341.511C415.511 336.377 410.704 329.99 403.946 333.351C400.444 335.101 398.315 337.253 397.439 339.931C395.956 344.382 398.471 349.219 400.659 353.47C402.365 356.772 403.975 359.902 403.078 361.705C401.497 364.866 396.742 366.357 392.543 367.64C390.598 368.186 388.698 368.88 386.86 369.718C383.106 371.594 350.263 388.48 353.616 402.939C353.724 403.57 353.996 404.161 354.403 404.654C354.81 405.147 355.34 405.525 355.939 405.751C360.479 407.427 369.938 400.877 380.057 393.428C381.843 392.031 383.703 390.731 385.629 389.533C399.472 382.619 419.681 378.487 431.336 385.772C453.08 399.363 458.236 408.993 466.041 423.563C467.599 426.471 469.261 429.573 471.167 432.918H473.734C471.568 429.164 469.721 425.722 468 422.532C460.314 408.177 454.764 397.805 432.515 383.895C427.612 380.838 421.728 379.659 415.66 379.659C404.109 379.659 391.92 383.925 384.634 387.56C382.576 388.802 380.594 390.167 378.699 391.648C372.327 396.344 360.464 405.076 356.673 403.673C356.421 403.573 356.202 403.406 356.039 403.191C355.875 402.975 355.774 402.719 355.746 402.449C353.335 392.063 375.673 377.797 387.817 371.721C389.553 370.943 391.343 370.294 393.173 369.777C397.788 368.33 403.026 366.691 405.044 362.684C406.453 359.873 404.591 356.26 402.618 352.432C400.644 348.604 398.367 344.197 399.539 340.606C400.214 338.529 401.98 336.8 404.917 335.331C409.651 332.957 413.145 336.941 417.574 342.817C419.206 344.991 420.749 347.046 422.322 348.225C426.573 351.415 431.091 353.589 435.461 355.689C442.553 359.101 449.252 362.321 454.393 369.517C458.103 374.71 459.542 380.697 461.07 387.048C462.487 392.909 463.956 398.962 467.339 404.371C469.097 407.183 470.804 410.165 472.451 413.051C475.151 417.762 477.941 422.636 481.116 427.08C482.673 429.145 484.386 431.087 486.242 432.889L486.287 432.933H489.388C488.876 432.392 488.349 431.858 487.837 431.331C486.087 429.617 484.468 427.774 482.993 425.819Z" fill="#2E3120"/>
<path d="M374.256 430.574C371.171 430.919 368.155 431.724 365.308 432.963H373.039C373.506 432.889 373.974 432.822 374.434 432.792C378.768 432.473 383.122 432.53 387.446 432.963H400.592C391.994 430.782 383.105 429.976 374.256 430.574Z" fill="#2E3120"/>
<path d="M366.592 313.668C364.248 312.407 362.037 311.213 360.063 310.026C355.916 307.438 351.95 304.57 348.193 301.442C339.009 294.135 330.321 287.228 314 288.296V290.522C329.579 289.468 337.562 295.826 346.799 303.186C350.635 306.373 354.683 309.297 358.913 311.94C360.939 313.149 363.172 314.351 365.538 315.649C371.073 318.617 376.8 321.718 380.242 325.16C380.903 325.82 380.769 328.499 380.702 329.789C380.702 330.272 380.658 330.709 380.658 331.058C380.658 340.324 378.202 348.455 366.221 358.048C363.995 359.828 361.287 360.852 358.424 361.928C355.315 363.107 352.096 364.324 349.469 366.616C329.802 383.806 308.888 409.074 318.867 432.963H321.3C310.951 410.039 331.59 385.201 350.975 368.271C353.29 366.238 356.168 365.148 359.247 363.99C362.148 362.892 365.182 361.765 367.645 359.761C376.815 352.424 382.921 344.738 382.921 331.036C382.921 330.717 382.921 330.294 382.965 329.878C383.076 327.653 383.21 324.923 381.852 323.565C378.143 319.893 372.275 316.732 366.592 313.668Z" fill="#2E3120"/>
<path d="M314 373.19V375.69C314.495 375.986 314.953 376.34 315.365 376.743C315.914 377.3 316.107 378.553 315.795 380.267C315.42 382.237 314.818 384.156 314 385.987V391.099C315.914 387.53 317.502 383.643 317.991 380.623C318.399 378.108 318.043 376.276 316.938 375.17C316.086 374.339 315.09 373.668 314 373.19Z" fill="#2E3120"/>
<path d="M338.564 323.224C337.08 320.716 335.552 318.12 332.554 316.324C328.162 313.691 321.641 312.199 314.007 312.036V314.262C320.729 314.425 327.124 315.649 331.419 318.224C333.927 319.707 335.247 321.933 336.65 324.352C337.43 325.748 338.31 327.087 339.283 328.358C344.862 335.331 346.85 340.97 345.218 345.124C342.088 352.914 326.849 355.199 314.059 356.898V359.123C327.51 357.336 343.675 354.962 347.303 345.933C349.321 340.91 347.303 334.701 341.079 326.941C340.152 325.763 339.312 324.521 338.564 323.224Z" fill="#2E3120"/>
<path d="M506.147 168.512C504.604 167.941 503.179 167.295 501.785 166.672C498.417 165.151 495.234 163.705 490.938 163.334C479.921 162.332 466.456 164.424 452.235 166.635C427.545 170.478 402.009 174.44 383.566 163.905C370.079 156.197 363.461 142.665 357.059 129.585C350.827 116.862 344.951 104.844 333.319 97.8551C327.91 94.6057 321.107 93.4038 314.03 93.5967V95.8224C320.15 95.6666 326.805 96.5643 332.213 99.7692C343.297 106.446 349.039 118.153 355.115 130.572C361.666 143.926 368.469 157.792 382.52 165.841C401.646 176.769 428.732 172.518 452.635 168.809C466.731 166.583 480.085 164.543 490.797 165.522C494.722 165.878 497.741 167.236 500.932 168.668C502.349 169.306 503.817 169.966 505.42 170.567C520.806 176.339 529.39 181.895 534.131 189.158C539.383 197.208 540.303 207.906 537.098 223.856C535.422 232.217 532.113 238.813 528.611 245.794C526.209 250.364 524.077 255.071 522.223 259.889C521.071 263.266 520.098 266.7 519.308 270.179C517.542 277.346 515.717 284.75 510.925 290.21C496.955 306.183 476.116 315.278 450.662 316.525C428.984 317.578 404.665 312.704 383.952 303.171C376.318 299.684 369.048 294.973 362.037 290.388C352.578 284.231 342.852 277.865 331.805 274.2C326.612 272.464 320.588 271.915 314 272.538V274.764C320.38 274.141 326.159 274.653 331.123 276.307C341.872 279.891 351.509 286.174 360.798 292.25C367.898 296.865 375.205 301.65 382.995 305.241C402.38 314.108 423.418 318.785 444.734 318.965C446.762 318.965 448.767 318.916 450.751 318.817C476.82 317.548 498.231 308.186 512.579 291.746C517.728 285.87 519.619 278.192 521.445 270.773C522.215 267.371 523.166 264.013 524.293 260.713C526.116 255.965 528.214 251.328 530.577 246.825C533.99 240.014 537.528 232.981 539.257 224.324C542.573 207.757 541.549 196.548 535.956 187.971C530.941 180.278 522.038 174.462 506.147 168.512Z" fill="#2E3120"/>
<path d="M472.547 183.691C462.955 181.295 453.332 182.815 444.022 184.284C441.24 184.722 438.369 185.175 435.564 185.516C433.213 185.798 430.846 186.094 428.472 186.391C409.369 188.788 389.62 191.265 370.902 187.014C355.827 183.609 337.918 170.812 334.031 155.329C333.007 151.233 333.141 146.426 333.289 141.233C333.593 130.312 333.942 117.93 321.152 113.13C318.856 112.316 316.436 111.902 314 111.906V114.132C316.175 114.129 318.333 114.503 320.38 115.237C331.679 119.481 331.382 130.023 331.071 141.203C330.93 146.255 330.789 151.471 331.887 155.87C334.32 165.596 341.361 172.934 346.843 177.385C353.824 183.068 362.423 187.363 370.413 189.181C389.509 193.521 409.458 191.021 428.747 188.602C431.121 188.298 433.487 188.009 435.824 187.727C438.673 187.385 441.566 186.925 444.371 186.48C453.459 185.048 462.858 183.565 472.006 185.85C481.45 188.209 491.198 194.352 498.083 202.282C505.642 210.977 509.077 220.829 507.727 230.066C505.657 244.584 497.467 257.278 483.379 267.783C458.155 286.575 421.061 292.859 397.395 289.357C386.704 287.792 376.726 282.747 367.067 277.91C363.439 276.077 359.648 274.2 355.938 272.501C350.115 269.883 344.922 265.083 339.417 260.023C331.805 252.923 323.912 245.682 314 244.377V246.647C323.155 248.012 330.64 254.911 337.933 261.588C343.319 266.559 348.898 271.7 355.048 274.467C358.758 276.122 362.467 278.006 366.065 279.831C375.88 284.787 386.022 289.913 397.098 291.553C421.217 295.121 459.06 288.719 484.744 269.564C499.114 258.843 507.831 245.289 509.968 230.37C511.37 220.503 507.742 210.005 499.767 200.813C492.593 192.593 482.407 186.184 472.547 183.691Z" fill="#2E3120"/>
<path d="M418.019 209.256C413.308 207.372 408.375 205.547 403.619 203.788C394.123 200.264 384.256 196.622 375.576 192.297C372.816 190.917 369.196 191.058 365.694 191.199C363.717 191.351 361.729 191.314 359.759 191.087C354.655 190.234 348.401 186.762 343.519 183.839C334.914 178.646 324.468 166.197 322.613 155.047C322.205 152.621 321.99 150.032 321.753 147.294C321.078 139.178 320.306 130.105 314 124.949V128.05C318.295 132.79 318.934 140.231 319.549 147.494C319.787 150.276 320.017 152.903 320.432 155.418C322.398 167.199 333.356 180.337 342.392 185.753C347.437 188.78 353.928 192.378 359.41 193.291C361.535 193.545 363.679 193.592 365.813 193.432C369.033 193.306 372.364 193.172 374.612 194.292C383.366 198.669 393.27 202.334 402.848 205.88C407.596 207.639 412.492 209.456 417.196 211.333C426.335 214.991 442.034 227.929 439.452 239.621C437.671 247.648 430.802 253.235 425.356 256.499C418.698 260.388 411.379 263.017 403.767 264.252C383.818 267.323 352.355 250.505 329.387 238.234C324.683 235.719 320.247 233.352 316.485 231.468C315.647 231.045 314.816 230.637 314 230.236V232.722L315.484 233.464C319.193 235.333 323.644 237.7 328.326 240.2C349.647 251.595 378.187 266.848 398.73 266.848C400.526 266.855 402.319 266.724 404.094 266.455C417.27 264.43 438.124 255.742 441.596 240.103C444.512 227.009 428.057 213.27 418.019 209.256Z" fill="#2E3120"/>
<path d="M368.944 202.98L367.46 202.587L362.845 201.355C349.714 197.868 331.731 193.098 322.784 185.449C319.49 182.571 316.33 177.607 314 172.474V177.452C316.129 181.302 318.674 184.796 321.419 187.096C330.729 195.071 348.994 199.923 362.333 203.462C363.958 203.892 365.501 204.3 366.933 204.693L368.417 205.087C376.266 207.179 383.047 208.989 381.303 218.574C380.561 222.454 378.21 225.852 374.396 228.404C368.647 232.254 359.878 233.924 353.067 232.462C342.288 230.199 331.805 221.608 321.708 213.292C319.112 211.163 316.515 209.056 314 207.067V209.901C316.077 211.556 318.177 213.277 320.299 215.013C330.618 223.493 341.294 232.262 352.556 234.673C354.453 235.073 356.388 235.27 358.327 235.259C364.433 235.282 370.419 233.557 375.576 230.288C379.901 227.395 382.616 223.493 383.433 219.004C385.562 207.431 376.733 205.05 368.944 202.98Z" fill="#2E3120"/>
</mask>
<g mask="url(#mask0_480_201)">
<circle cx="500.213" cy="247.462" r="171.374" fill="#D9D9D9" fill-opacity="0.35"/>
</g>
<rect x="-0.5" y="-0.5" width="753" height="455" fill="#674CEF" stroke="#D9D9D9"/>
<path d="M79.8206 399.095H81.202C101.695 399.095 118.309 382.482 118.309 361.988V361.297C118.309 340.422 101.386 323.5 80.5113 323.5C59.6364 323.5 42.7139 340.422 42.7139 361.297V361.988C42.7139 382.482 59.3271 399.095 79.8206 399.095Z" stroke="white" stroke-opacity="0.1"/>
<path d="M59.3999 432.5H60.7357C80.5627 432.5 96.6356 416.427 96.6356 396.6V395.933C96.6356 375.737 80.2637 359.365 60.0678 359.365C39.872 359.365 23.5 375.737 23.5 395.933V396.6C23.5 416.427 39.5729 432.5 59.3999 432.5Z" stroke="white" stroke-opacity="0.1"/>
<path d="M95.3999 432.5H96.7357C116.563 432.5 132.636 416.427 132.636 396.6V395.933C132.636 375.737 116.264 359.365 96.0678 359.365C75.872 359.365 59.5 375.737 59.5 395.933V396.6C59.5 416.427 75.5729 432.5 95.3999 432.5Z" stroke="white" stroke-opacity="0.1"/>
<path d="M606 400H686V440.741V480H606V440.741V400Z" fill="white" fill-opacity="0.1"/>
<path d="M377 -23H457V17.7407V57H377V17.7407V-23Z" fill="white" fill-opacity="0.1"/>
</g>
<defs>
<clipPath id="clip0_480_201">
<rect width="752" height="454" fill="white"/>
</clipPath>
</defs>
</svg>
