<svg width="70" height="63" viewBox="0 0 70 63" fill="none" xmlns="http://www.w3.org/2000/svg">
<path fill-rule="evenodd" clip-rule="evenodd" d="M39.7567 25.7216C39.5552 24.7351 39.2361 23.7621 38.7861 22.8068C37.2076 19.4546 32.7225 17.9618 28.3052 18.2496C23.8896 18.5371 19.6329 20.6001 18.486 23.9948C17.8299 25.9357 17.9805 27.4726 18.6267 28.6697C19.2698 29.8603 20.4242 30.7294 21.8758 31.3018C25.9225 32.8955 32.3395 32.1589 35.0456 30.6572C36.297 29.9619 37.5005 29.1821 38.6553 28.332C38.6858 32.4554 36.6966 36.745 33.7309 40.8333C27.2858 49.7186 16.1705 57.6447 9.9287 60.9682C9.59334 61.1467 9.46741 61.5629 9.64596 61.8983C9.82451 62.2336 10.241 62.3613 10.5764 62.1827C16.9417 58.7933 28.2714 50.7029 34.8438 41.6414C38.2395 36.9608 40.3535 32.0167 39.981 27.3116C48.3809 20.5409 54.3371 10.0204 59.4523 1.14734C59.6428 0.819634 59.5291 0.39773 59.1997 0.207637C58.8706 0.0192496 58.45 0.130924 58.2599 0.460331C53.3531 8.97047 47.6984 19.0591 39.7567 25.7216ZM38.5353 26.7045C38.3752 25.5829 38.0516 24.4747 37.5402 23.3916C36.1745 20.49 32.2182 19.3722 28.3944 19.6215C26.0506 19.7751 23.7396 20.4544 22.0495 21.6306C20.9867 22.3696 20.1728 23.3034 19.7907 24.4361C19.2885 25.922 19.3427 27.1008 19.8381 28.0156C20.3347 28.9372 21.2552 29.5786 22.3799 30.0205C26.0677 31.4738 31.914 30.821 34.377 29.4538C35.83 28.6478 37.213 27.7243 38.5353 26.7045Z" fill="#674CEF"/>
</svg>
